<?xml version="1.0" encoding="utf-8" ?>
<svg baseProfile="full" height="100%" version="1.1" width="100%" xmlns="http://www.w3.org/2000/svg" xmlns:ev="http://www.w3.org/2001/xml-events" xmlns:xlink="http://www.w3.org/1999/xlink"><defs /><style type="text/css"><![CDATA[
		circle:hover {
			stroke: black;
			stroke-width: 2;
			fill: lightgreen 
		}
	]]></style><style type="text/css"><![CDATA[
		line:hover {
			stroke: black;
			stroke-width: 4;
		}
	]]></style><g id="outer_group" opacity="0"><g class="connections" stroke="green"><line stroke="#FF0000" stroke-width="2" x1="7.0cm" x2="3.5cm" y1="5.25cm" y2="3.5cm"><title>-1.00</title></line><line stroke="#00FF00" stroke-width="2" x1="7.0cm" x2="3.5cm" y1="5.25cm" y2="7.0cm"><title>1.00</title></line><line stroke="#FF0000" stroke-width="2" x1="7.0cm" x2="3.5cm" y1="8.75cm" y2="7.0cm"><title>-1.00</title></line><line stroke="#00FF00" stroke-width="2" x1="7.0cm" x2="3.5cm" y1="8.75cm" y2="10.5cm"><title>1.00</title></line><line stroke="#FF0000" stroke-width="2" x1="7.0cm" x2="3.5cm" y1="12.25cm" y2="10.5cm"><title>-1.00</title></line><line stroke="#00FF00" stroke-width="2" x1="7.0cm" x2="3.5cm" y1="12.25cm" y2="14.0cm"><title>1.00</title></line><line stroke="#FF0000" stroke-width="2" x1="7.0cm" x2="3.5cm" y1="15.75cm" y2="14.0cm"><title>-1.00</title></line><line stroke="#00FF00" stroke-width="2" x1="7.0cm" x2="3.5cm" y1="15.75cm" y2="17.5cm"><title>1.00</title></line><line stroke="#00FF00" stroke-width="2" x1="10.5cm" x2="7.0cm" y1="5.25cm" y2="5.25cm"><title>10.00</title></line><line stroke="#00FF00" stroke-width="2" x1="10.5cm" x2="7.0cm" y1="8.75cm" y2="8.75cm"><title>10.00</title></line><line stroke="#00FF00" stroke-width="2" x1="10.5cm" x2="7.0cm" y1="12.25cm" y2="12.25cm"><title>10.00</title></line><line stroke="#00FF00" stroke-width="2" x1="10.5cm" x2="7.0cm" y1="15.75cm" y2="15.75cm"><title>10.00</title></line><line stroke="#00FF00" stroke-width="2" x1="14.0cm" x2="10.5cm" y1="10.5cm" y2="5.25cm"><title>1.00</title></line><line stroke="#00FF00" stroke-width="2" x1="14.0cm" x2="10.5cm" y1="10.5cm" y2="8.75cm"><title>1.00</title></line><line stroke="#00FF00" stroke-width="2" x1="14.0cm" x2="10.5cm" y1="10.5cm" y2="12.25cm"><title>1.00</title></line><line stroke="#00FF00" stroke-width="2" x1="14.0cm" x2="10.5cm" y1="10.5cm" y2="15.75cm"><title>1.00</title></line><line stroke="#00FF00" stroke-width="2" x1="17.5cm" x2="14.0cm" y1="10.5cm" y2="10.5cm"><title>0.25</title></line></g><g class="nodes" fill="red" id="nodes"><circle cx="3.5cm" cy="3.5cm" fill="#8E8E8E" r="0.6cm"><title>8.00</title></circle><circle cx="3.5cm" cy="7.0cm" fill="#8E8E8E" r="0.6cm"><title>9.00</title></circle><circle cx="3.5cm" cy="10.5cm" fill="#8E8E8E" r="0.6cm"><title>10.00</title></circle><circle cx="3.5cm" cy="14.0cm" fill="#8E8E8E" r="0.6cm"><title>11.00</title></circle><circle cx="3.5cm" cy="17.5cm" fill="#8E8E8E" r="0.6cm"><title>12.00</title></circle><circle cx="7.0cm" cy="5.25cm" fill="#FFFFFF" r="0.6cm"><title>1.50</title></circle><circle cx="7.0cm" cy="8.75cm" fill="#FFFFFF" r="0.6cm"><title>1.50</title></circle><circle cx="7.0cm" cy="12.25cm" fill="#FFFFFF" r="0.6cm"><title>1.50</title></circle><circle cx="7.0cm" cy="15.75cm" fill="#FFFFFF" r="0.6cm"><title>1.50</title></circle><circle cx="10.5cm" cy="5.25cm" fill="#FEFEFE" r="0.6cm"><title>1.00</title></circle><circle cx="10.5cm" cy="8.75cm" fill="#FEFEFE" r="0.6cm"><title>1.00</title></circle><circle cx="10.5cm" cy="12.25cm" fill="#FEFEFE" r="0.6cm"><title>1.00</title></circle><circle cx="10.5cm" cy="15.75cm" fill="#FEFEFE" r="0.6cm"><title>1.00</title></circle><circle cx="14.0cm" cy="10.5cm" fill="#FFFFFF" r="0.6cm"><title>4.00</title></circle><circle cx="17.5cm" cy="10.5cm" fill="#FEFEFE" r="0.6cm"><title>1.00</title></circle></g><g class="values" fill="black" id="value"><text fill="#717171" text-anchor="middle" x="3.5cm" y="3.5cm">8.00<title>8.00</title></text><text fill="#717171" text-anchor="middle" x="3.5cm" y="7.0cm">9.00<title>9.00</title></text><text fill="#717171" text-anchor="middle" x="3.5cm" y="10.5cm">10.00<title>10.00</title></text><text fill="#717171" text-anchor="middle" x="3.5cm" y="14.0cm">11.00<title>11.00</title></text><text fill="#717171" text-anchor="middle" x="3.5cm" y="17.5cm">12.00<title>12.00</title></text><text fill="#000000" text-anchor="middle" x="7.0cm" y="5.25cm">1.50<title>1.50</title></text><text fill="#000000" text-anchor="middle" x="7.0cm" y="8.75cm">1.50<title>1.50</title></text><text fill="#000000" text-anchor="middle" x="7.0cm" y="12.25cm">1.50<title>1.50</title></text><text fill="#000000" text-anchor="middle" x="7.0cm" y="15.75cm">1.50<title>1.50</title></text><text fill="#010101" text-anchor="middle" x="10.5cm" y="5.25cm">1.00<title>1.00</title></text><text fill="#010101" text-anchor="middle" x="10.5cm" y="8.75cm">1.00<title>1.00</title></text><text fill="#010101" text-anchor="middle" x="10.5cm" y="12.25cm">1.00<title>1.00</title></text><text fill="#010101" text-anchor="middle" x="10.5cm" y="15.75cm">1.00<title>1.00</title></text><text fill="#000000" text-anchor="middle" x="14.0cm" y="10.5cm">4.00<title>4.00</title></text><text fill="#010101" text-anchor="middle" x="17.5cm" y="10.5cm">1.00<title>1.00</title></text></g><animate attributeName="opacity" begin="0s" dur="1s" from="0" to="1" /><animate attributeName="opacity" begin="1s" dur="1s" fill="freeze" from="1" to="1" /></g><g id="outer_group" opacity="0"><g class="connections" stroke="green"><line stroke="#FF0000" stroke-width="2" x1="7.0cm" x2="3.5cm" y1="5.25cm" y2="3.5cm"><title>-1.00</title></line><line stroke="#00FF00" stroke-width="2" x1="7.0cm" x2="3.5cm" y1="5.25cm" y2="7.0cm"><title>1.00</title></line><line stroke="#FF0000" stroke-width="2" x1="7.0cm" x2="3.5cm" y1="8.75cm" y2="7.0cm"><title>-1.00</title></line><line stroke="#00FF00" stroke-width="2" x1="7.0cm" x2="3.5cm" y1="8.75cm" y2="10.5cm"><title>1.00</title></line><line stroke="#FF0000" stroke-width="2" x1="7.0cm" x2="3.5cm" y1="12.25cm" y2="10.5cm"><title>-1.00</title></line><line stroke="#00FF00" stroke-width="2" x1="7.0cm" x2="3.5cm" y1="12.25cm" y2="14.0cm"><title>1.00</title></line><line stroke="#FF0000" stroke-width="2" x1="7.0cm" x2="3.5cm" y1="15.75cm" y2="14.0cm"><title>-1.00</title></line><line stroke="#00FF00" stroke-width="2" x1="7.0cm" x2="3.5cm" y1="15.75cm" y2="17.5cm"><title>1.00</title></line><line stroke="#00FF00" stroke-width="2" x1="10.5cm" x2="7.0cm" y1="5.25cm" y2="5.25cm"><title>10.00</title></line><line stroke="#00FF00" stroke-width="2" x1="10.5cm" x2="7.0cm" y1="8.75cm" y2="8.75cm"><title>10.00</title></line><line stroke="#00FF00" stroke-width="2" x1="10.5cm" x2="7.0cm" y1="12.25cm" y2="12.25cm"><title>10.00</title></line><line stroke="#00FF00" stroke-width="2" x1="10.5cm" x2="7.0cm" y1="15.75cm" y2="15.75cm"><title>10.00</title></line><line stroke="#00FF00" stroke-width="2" x1="14.0cm" x2="10.5cm" y1="10.5cm" y2="5.25cm"><title>1.00</title></line><line stroke="#00FF00" stroke-width="2" x1="14.0cm" x2="10.5cm" y1="10.5cm" y2="8.75cm"><title>1.00</title></line><line stroke="#00FF00" stroke-width="2" x1="14.0cm" x2="10.5cm" y1="10.5cm" y2="12.25cm"><title>1.00</title></line><line stroke="#00FF00" stroke-width="2" x1="14.0cm" x2="10.5cm" y1="10.5cm" y2="15.75cm"><title>1.00</title></line><line stroke="#00FF00" stroke-width="2" x1="17.5cm" x2="14.0cm" y1="10.5cm" y2="10.5cm"><title>0.25</title></line></g><g class="nodes" fill="red" id="nodes"><circle cx="3.5cm" cy="3.5cm" fill="#8E8E8E" r="0.6cm"><title>8.00</title></circle><circle cx="3.5cm" cy="7.0cm" fill="#8E8E8E" r="0.6cm"><title>9.00</title></circle><circle cx="3.5cm" cy="10.5cm" fill="#8E8E8E" r="0.6cm"><title>10.00</title></circle><circle cx="3.5cm" cy="14.0cm" fill="#8E8E8E" r="0.6cm"><title>11.00</title></circle><circle cx="3.5cm" cy="17.5cm" fill="#8E8E8E" r="0.6cm"><title>12.00</title></circle><circle cx="7.0cm" cy="5.25cm" fill="#FFFFFF" r="0.6cm"><title>1.50</title></circle><circle cx="7.0cm" cy="8.75cm" fill="#FFFFFF" r="0.6cm"><title>1.50</title></circle><circle cx="7.0cm" cy="12.25cm" fill="#FFFFFF" r="0.6cm"><title>1.50</title></circle><circle cx="7.0cm" cy="15.75cm" fill="#FFFFFF" r="0.6cm"><title>1.50</title></circle><circle cx="10.5cm" cy="5.25cm" fill="#FEFEFE" r="0.6cm"><title>1.00</title></circle><circle cx="10.5cm" cy="8.75cm" fill="#FEFEFE" r="0.6cm"><title>1.00</title></circle><circle cx="10.5cm" cy="12.25cm" fill="#FEFEFE" r="0.6cm"><title>1.00</title></circle><circle cx="10.5cm" cy="15.75cm" fill="#FEFEFE" r="0.6cm"><title>1.00</title></circle><circle cx="14.0cm" cy="10.5cm" fill="#FFFFFF" r="0.6cm"><title>4.00</title></circle><circle cx="17.5cm" cy="10.5cm" fill="#FEFEFE" r="0.6cm"><title>1.00</title></circle></g><g class="values" fill="black" id="value"><text fill="#717171" text-anchor="middle" x="3.5cm" y="3.5cm">8.00<title>8.00</title></text><text fill="#717171" text-anchor="middle" x="3.5cm" y="7.0cm">9.00<title>9.00</title></text><text fill="#717171" text-anchor="middle" x="3.5cm" y="10.5cm">10.00<title>10.00</title></text><text fill="#717171" text-anchor="middle" x="3.5cm" y="14.0cm">11.00<title>11.00</title></text><text fill="#717171" text-anchor="middle" x="3.5cm" y="17.5cm">12.00<title>12.00</title></text><text fill="#000000" text-anchor="middle" x="7.0cm" y="5.25cm">1.50<title>1.50</title></text><text fill="#000000" text-anchor="middle" x="7.0cm" y="8.75cm">1.50<title>1.50</title></text><text fill="#000000" text-anchor="middle" x="7.0cm" y="12.25cm">1.50<title>1.50</title></text><text fill="#000000" text-anchor="middle" x="7.0cm" y="15.75cm">1.50<title>1.50</title></text><text fill="#010101" text-anchor="middle" x="10.5cm" y="5.25cm">1.00<title>1.00</title></text><text fill="#010101" text-anchor="middle" x="10.5cm" y="8.75cm">1.00<title>1.00</title></text><text fill="#010101" text-anchor="middle" x="10.5cm" y="12.25cm">1.00<title>1.00</title></text><text fill="#010101" text-anchor="middle" x="10.5cm" y="15.75cm">1.00<title>1.00</title></text><text fill="#000000" text-anchor="middle" x="14.0cm" y="10.5cm">4.00<title>4.00</title></text><text fill="#010101" text-anchor="middle" x="17.5cm" y="10.5cm">1.00<title>1.00</title></text></g><animate attributeName="opacity" begin="0s" dur="1s" from="0" to="1" /><animate attributeName="opacity" begin="1s" dur="1s" fill="freeze" from="1" to="1" /></g></svg>