<?xml version="1.0" encoding="utf-8" ?>
<svg baseProfile="full" height="100%" version="1.1" width="100%" xmlns="http://www.w3.org/2000/svg" xmlns:ev="http://www.w3.org/2001/xml-events" xmlns:xlink="http://www.w3.org/1999/xlink"><defs /><g id="connections" stroke="green" /><g fill="red" id="nodes"><circle cx="3.5cm" cy="3.5cm" r="0.6cm" /><circle cx="3.5cm" cy="7.0cm" r="0.6cm" /><circle cx="3.5cm" cy="10.5cm" r="0.6cm" /><circle cx="3.5cm" cy="14.0cm" r="0.6cm" /><circle cx="3.5cm" cy="17.5cm" r="0.6cm" /><circle cx="3.5cm" cy="21.0cm" r="0.6cm" /><circle cx="3.5cm" cy="24.5cm" r="0.6cm" /><circle cx="3.5cm" cy="28.0cm" r="0.6cm" /></g><g fill="black" id="value"><text x="3.5cm" y="3.5cm">2.00</text><text x="3.5cm" y="7.0cm">1.00</text><text x="3.5cm" y="10.5cm">3.00</text><text x="3.5cm" y="14.0cm">5.00</text><text x="3.5cm" y="17.5cm">6.00</text><text x="3.5cm" y="21.0cm">7.00</text><text x="3.5cm" y="24.5cm">8.00</text><text x="3.5cm" y="28.0cm">9.00</text></g><g id="connections" stroke="green"><line stroke="#003D00" x1="7.0cm" x2="3.5cm" y1="5.25cm" y2="3.5cm" /><line stroke="#003D00" x1="7.0cm" x2="3.5cm" y1="5.25cm" y2="7.0cm" /><line stroke="#003D00" x1="7.0cm" x2="3.5cm" y1="5.25cm" y2="10.5cm" /><line stroke="#003D00" x1="7.0cm" x2="3.5cm" y1="5.25cm" y2="14.0cm" /><line stroke="#003D00" x1="7.0cm" x2="3.5cm" y1="5.25cm" y2="17.5cm" /><line stroke="#003D00" x1="7.0cm" x2="3.5cm" y1="5.25cm" y2="21.0cm" /><line stroke="#003D00" x1="7.0cm" x2="3.5cm" y1="5.25cm" y2="24.5cm" /><line stroke="#003D00" x1="7.0cm" x2="3.5cm" y1="5.25cm" y2="28.0cm" /><line stroke="#8C0000" x1="7.0cm" x2="3.5cm" y1="8.75cm" y2="3.5cm" /><line stroke="#8C0000" x1="7.0cm" x2="3.5cm" y1="8.75cm" y2="7.0cm" /><line stroke="#8C0000" x1="7.0cm" x2="3.5cm" y1="8.75cm" y2="10.5cm" /><line stroke="#8C0000" x1="7.0cm" x2="3.5cm" y1="8.75cm" y2="14.0cm" /><line stroke="#8C0000" x1="7.0cm" x2="3.5cm" y1="8.75cm" y2="17.5cm" /><line stroke="#8C0000" x1="7.0cm" x2="3.5cm" y1="8.75cm" y2="21.0cm" /><line stroke="#8C0000" x1="7.0cm" x2="3.5cm" y1="8.75cm" y2="24.5cm" /><line stroke="#8C0000" x1="7.0cm" x2="3.5cm" y1="8.75cm" y2="28.0cm" /><line stroke="#008600" x1="7.0cm" x2="3.5cm" y1="12.25cm" y2="3.5cm" /><line stroke="#008600" x1="7.0cm" x2="3.5cm" y1="12.25cm" y2="7.0cm" /><line stroke="#008600" x1="7.0cm" x2="3.5cm" y1="12.25cm" y2="10.5cm" /><line stroke="#008600" x1="7.0cm" x2="3.5cm" y1="12.25cm" y2="14.0cm" /><line stroke="#008600" x1="7.0cm" x2="3.5cm" y1="12.25cm" y2="17.5cm" /><line stroke="#008600" x1="7.0cm" x2="3.5cm" y1="12.25cm" y2="21.0cm" /><line stroke="#008600" x1="7.0cm" x2="3.5cm" y1="12.25cm" y2="24.5cm" /><line stroke="#008600" x1="7.0cm" x2="3.5cm" y1="12.25cm" y2="28.0cm" /><line stroke="#770000" x1="7.0cm" x2="3.5cm" y1="15.75cm" y2="3.5cm" /><line stroke="#770000" x1="7.0cm" x2="3.5cm" y1="15.75cm" y2="7.0cm" /><line stroke="#770000" x1="7.0cm" x2="3.5cm" y1="15.75cm" y2="10.5cm" /><line stroke="#770000" x1="7.0cm" x2="3.5cm" y1="15.75cm" y2="14.0cm" /><line stroke="#770000" x1="7.0cm" x2="3.5cm" y1="15.75cm" y2="17.5cm" /><line stroke="#770000" x1="7.0cm" x2="3.5cm" y1="15.75cm" y2="21.0cm" /><line stroke="#770000" x1="7.0cm" x2="3.5cm" y1="15.75cm" y2="24.5cm" /><line stroke="#770000" x1="7.0cm" x2="3.5cm" y1="15.75cm" y2="28.0cm" /><line stroke="#FF0000" x1="7.0cm" x2="3.5cm" y1="19.25cm" y2="3.5cm" /><line stroke="#FF0000" x1="7.0cm" x2="3.5cm" y1="19.25cm" y2="7.0cm" /><line stroke="#FF0000" x1="7.0cm" x2="3.5cm" y1="19.25cm" y2="10.5cm" /><line stroke="#FF0000" x1="7.0cm" x2="3.5cm" y1="19.25cm" y2="14.0cm" /><line stroke="#FF0000" x1="7.0cm" x2="3.5cm" y1="19.25cm" y2="17.5cm" /><line stroke="#FF0000" x1="7.0cm" x2="3.5cm" y1="19.25cm" y2="21.0cm" /><line stroke="#FF0000" x1="7.0cm" x2="3.5cm" y1="19.25cm" y2="24.5cm" /><line stroke="#FF0000" x1="7.0cm" x2="3.5cm" y1="19.25cm" y2="28.0cm" /><line stroke="#00FF00" x1="7.0cm" x2="3.5cm" y1="22.75cm" y2="3.5cm" /><line stroke="#00FF00" x1="7.0cm" x2="3.5cm" y1="22.75cm" y2="7.0cm" /><line stroke="#00FF00" x1="7.0cm" x2="3.5cm" y1="22.75cm" y2="10.5cm" /><line stroke="#00FF00" x1="7.0cm" x2="3.5cm" y1="22.75cm" y2="14.0cm" /><line stroke="#00FF00" x1="7.0cm" x2="3.5cm" y1="22.75cm" y2="17.5cm" /><line stroke="#00FF00" x1="7.0cm" x2="3.5cm" y1="22.75cm" y2="21.0cm" /><line stroke="#00FF00" x1="7.0cm" x2="3.5cm" y1="22.75cm" y2="24.5cm" /><line stroke="#00FF00" x1="7.0cm" x2="3.5cm" y1="22.75cm" y2="28.0cm" /><line stroke="#B00000" x1="7.0cm" x2="3.5cm" y1="26.25cm" y2="3.5cm" /><line stroke="#B00000" x1="7.0cm" x2="3.5cm" y1="26.25cm" y2="7.0cm" /><line stroke="#B00000" x1="7.0cm" x2="3.5cm" y1="26.25cm" y2="10.5cm" /><line stroke="#B00000" x1="7.0cm" x2="3.5cm" y1="26.25cm" y2="14.0cm" /><line stroke="#B00000" x1="7.0cm" x2="3.5cm" y1="26.25cm" y2="17.5cm" /><line stroke="#B00000" x1="7.0cm" x2="3.5cm" y1="26.25cm" y2="21.0cm" /><line stroke="#B00000" x1="7.0cm" x2="3.5cm" y1="26.25cm" y2="24.5cm" /><line stroke="#B00000" x1="7.0cm" x2="3.5cm" y1="26.25cm" y2="28.0cm" /></g><g fill="red" id="nodes"><circle cx="7.0cm" cy="5.25cm" r="0.6cm" /><circle cx="7.0cm" cy="8.75cm" r="0.6cm" /><circle cx="7.0cm" cy="12.25cm" r="0.6cm" /><circle cx="7.0cm" cy="15.75cm" r="0.6cm" /><circle cx="7.0cm" cy="19.25cm" r="0.6cm" /><circle cx="7.0cm" cy="22.75cm" r="0.6cm" /><circle cx="7.0cm" cy="26.25cm" r="0.6cm" /></g><g fill="black" id="value"><text x="7.0cm" y="5.25cm">6.87</text><text x="7.0cm" y="8.75cm">0.00</text><text x="7.0cm" y="12.25cm">14.29</text><text x="7.0cm" y="15.75cm">0.00</text><text x="7.0cm" y="19.25cm">0.00</text><text x="7.0cm" y="22.75cm">26.75</text><text x="7.0cm" y="26.25cm">0.00</text></g><g id="connections" stroke="green"><line stroke="#620000" x1="10.5cm" x2="7.0cm" y1="5.25cm" y2="5.25cm" /><line stroke="#620000" x1="10.5cm" x2="7.0cm" y1="5.25cm" y2="8.75cm" /><line stroke="#620000" x1="10.5cm" x2="7.0cm" y1="5.25cm" y2="12.25cm" /><line stroke="#620000" x1="10.5cm" x2="7.0cm" y1="5.25cm" y2="15.75cm" /><line stroke="#620000" x1="10.5cm" x2="7.0cm" y1="5.25cm" y2="19.25cm" /><line stroke="#620000" x1="10.5cm" x2="7.0cm" y1="5.25cm" y2="22.75cm" /><line stroke="#620000" x1="10.5cm" x2="7.0cm" y1="5.25cm" y2="26.25cm" /><line stroke="#006100" x1="10.5cm" x2="7.0cm" y1="8.75cm" y2="5.25cm" /><line stroke="#006100" x1="10.5cm" x2="7.0cm" y1="8.75cm" y2="8.75cm" /><line stroke="#006100" x1="10.5cm" x2="7.0cm" y1="8.75cm" y2="12.25cm" /><line stroke="#006100" x1="10.5cm" x2="7.0cm" y1="8.75cm" y2="15.75cm" /><line stroke="#006100" x1="10.5cm" x2="7.0cm" y1="8.75cm" y2="19.25cm" /><line stroke="#006100" x1="10.5cm" x2="7.0cm" y1="8.75cm" y2="22.75cm" /><line stroke="#006100" x1="10.5cm" x2="7.0cm" y1="8.75cm" y2="26.25cm" /><line stroke="#D50000" x1="10.5cm" x2="7.0cm" y1="12.25cm" y2="5.25cm" /><line stroke="#D50000" x1="10.5cm" x2="7.0cm" y1="12.25cm" y2="8.75cm" /><line stroke="#D50000" x1="10.5cm" x2="7.0cm" y1="12.25cm" y2="12.25cm" /><line stroke="#D50000" x1="10.5cm" x2="7.0cm" y1="12.25cm" y2="15.75cm" /><line stroke="#D50000" x1="10.5cm" x2="7.0cm" y1="12.25cm" y2="19.25cm" /><line stroke="#D50000" x1="10.5cm" x2="7.0cm" y1="12.25cm" y2="22.75cm" /><line stroke="#D50000" x1="10.5cm" x2="7.0cm" y1="12.25cm" y2="26.25cm" /><line stroke="#FF0000" x1="10.5cm" x2="7.0cm" y1="15.75cm" y2="5.25cm" /><line stroke="#FF0000" x1="10.5cm" x2="7.0cm" y1="15.75cm" y2="8.75cm" /><line stroke="#FF0000" x1="10.5cm" x2="7.0cm" y1="15.75cm" y2="12.25cm" /><line stroke="#FF0000" x1="10.5cm" x2="7.0cm" y1="15.75cm" y2="15.75cm" /><line stroke="#FF0000" x1="10.5cm" x2="7.0cm" y1="15.75cm" y2="19.25cm" /><line stroke="#FF0000" x1="10.5cm" x2="7.0cm" y1="15.75cm" y2="22.75cm" /><line stroke="#FF0000" x1="10.5cm" x2="7.0cm" y1="15.75cm" y2="26.25cm" /><line stroke="#00FF00" x1="10.5cm" x2="7.0cm" y1="19.25cm" y2="5.25cm" /><line stroke="#00FF00" x1="10.5cm" x2="7.0cm" y1="19.25cm" y2="8.75cm" /><line stroke="#00FF00" x1="10.5cm" x2="7.0cm" y1="19.25cm" y2="12.25cm" /><line stroke="#00FF00" x1="10.5cm" x2="7.0cm" y1="19.25cm" y2="15.75cm" /><line stroke="#00FF00" x1="10.5cm" x2="7.0cm" y1="19.25cm" y2="19.25cm" /><line stroke="#00FF00" x1="10.5cm" x2="7.0cm" y1="19.25cm" y2="22.75cm" /><line stroke="#00FF00" x1="10.5cm" x2="7.0cm" y1="19.25cm" y2="26.25cm" /><line stroke="#310000" x1="10.5cm" x2="7.0cm" y1="22.75cm" y2="5.25cm" /><line stroke="#310000" x1="10.5cm" x2="7.0cm" y1="22.75cm" y2="8.75cm" /><line stroke="#310000" x1="10.5cm" x2="7.0cm" y1="22.75cm" y2="12.25cm" /><line stroke="#310000" x1="10.5cm" x2="7.0cm" y1="22.75cm" y2="15.75cm" /><line stroke="#310000" x1="10.5cm" x2="7.0cm" y1="22.75cm" y2="19.25cm" /><line stroke="#310000" x1="10.5cm" x2="7.0cm" y1="22.75cm" y2="22.75cm" /><line stroke="#310000" x1="10.5cm" x2="7.0cm" y1="22.75cm" y2="26.25cm" /><line stroke="#B90000" x1="10.5cm" x2="7.0cm" y1="26.25cm" y2="5.25cm" /><line stroke="#B90000" x1="10.5cm" x2="7.0cm" y1="26.25cm" y2="8.75cm" /><line stroke="#B90000" x1="10.5cm" x2="7.0cm" y1="26.25cm" y2="12.25cm" /><line stroke="#B90000" x1="10.5cm" x2="7.0cm" y1="26.25cm" y2="15.75cm" /><line stroke="#B90000" x1="10.5cm" x2="7.0cm" y1="26.25cm" y2="19.25cm" /><line stroke="#B90000" x1="10.5cm" x2="7.0cm" y1="26.25cm" y2="22.75cm" /><line stroke="#B90000" x1="10.5cm" x2="7.0cm" y1="26.25cm" y2="26.25cm" /></g><g fill="red" id="nodes"><circle cx="10.5cm" cy="5.25cm" r="0.6cm" /><circle cx="10.5cm" cy="8.75cm" r="0.6cm" /><circle cx="10.5cm" cy="12.25cm" r="0.6cm" /><circle cx="10.5cm" cy="15.75cm" r="0.6cm" /><circle cx="10.5cm" cy="19.25cm" r="0.6cm" /><circle cx="10.5cm" cy="22.75cm" r="0.6cm" /><circle cx="10.5cm" cy="26.25cm" r="0.6cm" /></g><g fill="black" id="value"><text x="10.5cm" y="5.25cm">0.00</text><text x="10.5cm" y="8.75cm">1.00</text><text x="10.5cm" y="12.25cm">0.00</text><text x="10.5cm" y="15.75cm">0.00</text><text x="10.5cm" y="19.25cm">1.00</text><text x="10.5cm" y="22.75cm">0.00</text><text x="10.5cm" y="26.25cm">0.00</text></g><g id="connections" stroke="green"><line stroke="#FF0000" x1="14.0cm" x2="10.5cm" y1="15.75cm" y2="5.25cm" /><line stroke="#FF0000" x1="14.0cm" x2="10.5cm" y1="15.75cm" y2="8.75cm" /><line stroke="#FF0000" x1="14.0cm" x2="10.5cm" y1="15.75cm" y2="12.25cm" /><line stroke="#FF0000" x1="14.0cm" x2="10.5cm" y1="15.75cm" y2="15.75cm" /><line stroke="#FF0000" x1="14.0cm" x2="10.5cm" y1="15.75cm" y2="19.25cm" /><line stroke="#FF0000" x1="14.0cm" x2="10.5cm" y1="15.75cm" y2="22.75cm" /><line stroke="#FF0000" x1="14.0cm" x2="10.5cm" y1="15.75cm" y2="26.25cm" /></g><g fill="red" id="nodes"><circle cx="14.0cm" cy="15.75cm" r="0.6cm" /></g><g fill="black" id="value"><text x="14.0cm" y="15.75cm">0.00</text></g><g id="connections" stroke="green"><line stroke="#FF0000" x1="17.5cm" x2="14.0cm" y1="15.75cm" y2="15.75cm" /></g><g fill="red" id="nodes"><circle cx="17.5cm" cy="15.75cm" r="0.6cm" /></g><g fill="black" id="value"><text x="17.5cm" y="15.75cm">0.00</text></g></svg>