<?xml version="1.0" encoding="utf-8" ?>
<svg baseProfile="full" height="100%" version="1.1" width="100%" xmlns="http://www.w3.org/2000/svg" xmlns:ev="http://www.w3.org/2001/xml-events" xmlns:xlink="http://www.w3.org/1999/xlink"><defs /><g id="connections" stroke="green" /><g fill="red" id="nodes"><circle cx="3.5cm" cy="3.5cm" r="0.6cm" /><circle cx="3.5cm" cy="7.0cm" r="0.6cm" /><circle cx="3.5cm" cy="10.5cm" r="0.6cm" /><circle cx="3.5cm" cy="14.0cm" r="0.6cm" /><circle cx="3.5cm" cy="17.5cm" r="0.6cm" /><circle cx="3.5cm" cy="21.0cm" r="0.6cm" /></g><g fill="black" id="value"><text x="3.5cm" y="3.5cm">1.00</text><text x="3.5cm" y="7.0cm">2.00</text><text x="3.5cm" y="10.5cm">3.00</text><text x="3.5cm" y="14.0cm">5.00</text><text x="3.5cm" y="17.5cm">6.00</text><text x="3.5cm" y="21.0cm">7.00</text></g><g id="connections" stroke="green"><line stroke="#B20000" x1="7.0cm" x2="3.5cm" y1="5.25cm" y2="3.5cm" /><line stroke="#B20000" x1="7.0cm" x2="3.5cm" y1="5.25cm" y2="7.0cm" /><line stroke="#B20000" x1="7.0cm" x2="3.5cm" y1="5.25cm" y2="10.5cm" /><line stroke="#B20000" x1="7.0cm" x2="3.5cm" y1="5.25cm" y2="14.0cm" /><line stroke="#B20000" x1="7.0cm" x2="3.5cm" y1="5.25cm" y2="17.5cm" /><line stroke="#B20000" x1="7.0cm" x2="3.5cm" y1="5.25cm" y2="21.0cm" /><line stroke="#970000" x1="7.0cm" x2="3.5cm" y1="8.75cm" y2="3.5cm" /><line stroke="#970000" x1="7.0cm" x2="3.5cm" y1="8.75cm" y2="7.0cm" /><line stroke="#970000" x1="7.0cm" x2="3.5cm" y1="8.75cm" y2="10.5cm" /><line stroke="#970000" x1="7.0cm" x2="3.5cm" y1="8.75cm" y2="14.0cm" /><line stroke="#970000" x1="7.0cm" x2="3.5cm" y1="8.75cm" y2="17.5cm" /><line stroke="#970000" x1="7.0cm" x2="3.5cm" y1="8.75cm" y2="21.0cm" /><line stroke="#004700" x1="7.0cm" x2="3.5cm" y1="12.25cm" y2="3.5cm" /><line stroke="#004700" x1="7.0cm" x2="3.5cm" y1="12.25cm" y2="7.0cm" /><line stroke="#004700" x1="7.0cm" x2="3.5cm" y1="12.25cm" y2="10.5cm" /><line stroke="#004700" x1="7.0cm" x2="3.5cm" y1="12.25cm" y2="14.0cm" /><line stroke="#004700" x1="7.0cm" x2="3.5cm" y1="12.25cm" y2="17.5cm" /><line stroke="#004700" x1="7.0cm" x2="3.5cm" y1="12.25cm" y2="21.0cm" /><line stroke="#FF0000" x1="7.0cm" x2="3.5cm" y1="15.75cm" y2="3.5cm" /><line stroke="#FF0000" x1="7.0cm" x2="3.5cm" y1="15.75cm" y2="7.0cm" /><line stroke="#FF0000" x1="7.0cm" x2="3.5cm" y1="15.75cm" y2="10.5cm" /><line stroke="#FF0000" x1="7.0cm" x2="3.5cm" y1="15.75cm" y2="14.0cm" /><line stroke="#FF0000" x1="7.0cm" x2="3.5cm" y1="15.75cm" y2="17.5cm" /><line stroke="#FF0000" x1="7.0cm" x2="3.5cm" y1="15.75cm" y2="21.0cm" /><line stroke="#00FF00" x1="7.0cm" x2="3.5cm" y1="19.25cm" y2="3.5cm" /><line stroke="#00FF00" x1="7.0cm" x2="3.5cm" y1="19.25cm" y2="7.0cm" /><line stroke="#00FF00" x1="7.0cm" x2="3.5cm" y1="19.25cm" y2="10.5cm" /><line stroke="#00FF00" x1="7.0cm" x2="3.5cm" y1="19.25cm" y2="14.0cm" /><line stroke="#00FF00" x1="7.0cm" x2="3.5cm" y1="19.25cm" y2="17.5cm" /><line stroke="#00FF00" x1="7.0cm" x2="3.5cm" y1="19.25cm" y2="21.0cm" /></g><g fill="red" id="nodes"><circle cx="7.0cm" cy="5.25cm" r="0.6cm" /><circle cx="7.0cm" cy="8.75cm" r="0.6cm" /><circle cx="7.0cm" cy="12.25cm" r="0.6cm" /><circle cx="7.0cm" cy="15.75cm" r="0.6cm" /><circle cx="7.0cm" cy="19.25cm" r="0.6cm" /></g><g fill="black" id="value"><text x="7.0cm" y="5.25cm">0.00</text><text x="7.0cm" y="8.75cm">0.00</text><text x="7.0cm" y="12.25cm">3.32</text><text x="7.0cm" y="15.75cm">0.00</text><text x="7.0cm" y="19.25cm">10.52</text></g><g id="connections" stroke="green"><line stroke="#FF0000" x1="10.5cm" x2="7.0cm" y1="5.25cm" y2="5.25cm" /><line stroke="#FF0000" x1="10.5cm" x2="7.0cm" y1="5.25cm" y2="8.75cm" /><line stroke="#FF0000" x1="10.5cm" x2="7.0cm" y1="5.25cm" y2="12.25cm" /><line stroke="#FF0000" x1="10.5cm" x2="7.0cm" y1="5.25cm" y2="15.75cm" /><line stroke="#FF0000" x1="10.5cm" x2="7.0cm" y1="5.25cm" y2="19.25cm" /><line stroke="#0B0000" x1="10.5cm" x2="7.0cm" y1="8.75cm" y2="5.25cm" /><line stroke="#0B0000" x1="10.5cm" x2="7.0cm" y1="8.75cm" y2="8.75cm" /><line stroke="#0B0000" x1="10.5cm" x2="7.0cm" y1="8.75cm" y2="12.25cm" /><line stroke="#0B0000" x1="10.5cm" x2="7.0cm" y1="8.75cm" y2="15.75cm" /><line stroke="#0B0000" x1="10.5cm" x2="7.0cm" y1="8.75cm" y2="19.25cm" /><line stroke="#00FF00" x1="10.5cm" x2="7.0cm" y1="12.25cm" y2="5.25cm" /><line stroke="#00FF00" x1="10.5cm" x2="7.0cm" y1="12.25cm" y2="8.75cm" /><line stroke="#00FF00" x1="10.5cm" x2="7.0cm" y1="12.25cm" y2="12.25cm" /><line stroke="#00FF00" x1="10.5cm" x2="7.0cm" y1="12.25cm" y2="15.75cm" /><line stroke="#00FF00" x1="10.5cm" x2="7.0cm" y1="12.25cm" y2="19.25cm" /><line stroke="#006E00" x1="10.5cm" x2="7.0cm" y1="15.75cm" y2="5.25cm" /><line stroke="#006E00" x1="10.5cm" x2="7.0cm" y1="15.75cm" y2="8.75cm" /><line stroke="#006E00" x1="10.5cm" x2="7.0cm" y1="15.75cm" y2="12.25cm" /><line stroke="#006E00" x1="10.5cm" x2="7.0cm" y1="15.75cm" y2="15.75cm" /><line stroke="#006E00" x1="10.5cm" x2="7.0cm" y1="15.75cm" y2="19.25cm" /><line stroke="#009300" x1="10.5cm" x2="7.0cm" y1="19.25cm" y2="5.25cm" /><line stroke="#009300" x1="10.5cm" x2="7.0cm" y1="19.25cm" y2="8.75cm" /><line stroke="#009300" x1="10.5cm" x2="7.0cm" y1="19.25cm" y2="12.25cm" /><line stroke="#009300" x1="10.5cm" x2="7.0cm" y1="19.25cm" y2="15.75cm" /><line stroke="#009300" x1="10.5cm" x2="7.0cm" y1="19.25cm" y2="19.25cm" /></g><g fill="red" id="nodes"><circle cx="10.5cm" cy="5.25cm" r="0.6cm" /><circle cx="10.5cm" cy="8.75cm" r="0.6cm" /><circle cx="10.5cm" cy="12.25cm" r="0.6cm" /><circle cx="10.5cm" cy="15.75cm" r="0.6cm" /><circle cx="10.5cm" cy="19.25cm" r="0.6cm" /></g><g fill="black" id="value"><text x="10.5cm" y="5.25cm">0.00</text><text x="10.5cm" y="8.75cm">0.28</text><text x="10.5cm" y="12.25cm">1.00</text><text x="10.5cm" y="15.75cm">0.97</text><text x="10.5cm" y="19.25cm">0.99</text></g><g id="connections" stroke="green"><line stroke="#FF0000" x1="14.0cm" x2="10.5cm" y1="12.25cm" y2="5.25cm" /><line stroke="#FF0000" x1="14.0cm" x2="10.5cm" y1="12.25cm" y2="8.75cm" /><line stroke="#FF0000" x1="14.0cm" x2="10.5cm" y1="12.25cm" y2="12.25cm" /><line stroke="#FF0000" x1="14.0cm" x2="10.5cm" y1="12.25cm" y2="15.75cm" /><line stroke="#FF0000" x1="14.0cm" x2="10.5cm" y1="12.25cm" y2="19.25cm" /></g><g fill="red" id="nodes"><circle cx="14.0cm" cy="12.25cm" r="0.6cm" /></g><g fill="black" id="value"><text x="14.0cm" y="12.25cm">0.00</text></g><g id="connections" stroke="green"><line stroke="#00FF00" x1="17.5cm" x2="14.0cm" y1="12.25cm" y2="12.25cm" /></g><g fill="red" id="nodes"><circle cx="17.5cm" cy="12.25cm" r="0.6cm" /></g><g fill="black" id="value"><text x="17.5cm" y="12.25cm">0.00</text></g></svg>