<?xml version="1.0" encoding="utf-8" ?>
<svg baseProfile="full" height="100%" version="1.1" width="100%" xmlns="http://www.w3.org/2000/svg" xmlns:ev="http://www.w3.org/2001/xml-events" xmlns:xlink="http://www.w3.org/1999/xlink"><defs /><style type="text/css"><![CDATA[
		circle:hover {
			stroke: black;
			stroke-width: 2;
			fill: lightgreen 
		}
	]]></style><style type="text/css"><![CDATA[
		line:hover {
			stroke: black;
			stroke-width: 4;
		}
	]]></style><g id="outer_group" opacity="0"><g class="connections" stroke="green"><line stroke="#0B0000" stroke-width="2" x1="7.0cm" x2="3.5cm" y1="5.25cm" y2="3.5cm"><title>-0.05</title></line><line stroke="#00E600" stroke-width="2" x1="7.0cm" x2="3.5cm" y1="5.25cm" y2="7.0cm"><title>0.72</title></line><line stroke="#002E00" stroke-width="2" x1="7.0cm" x2="3.5cm" y1="5.25cm" y2="10.5cm"><title>0.14</title></line><line stroke="#4E0000" stroke-width="2" x1="7.0cm" x2="3.5cm" y1="5.25cm" y2="14.0cm"><title>-0.30</title></line><line stroke="#CE0000" stroke-width="2" x1="7.0cm" x2="3.5cm" y1="5.25cm" y2="17.5cm"><title>-0.80</title></line><line stroke="#0B0000" stroke-width="2" x1="7.0cm" x2="3.5cm" y1="8.75cm" y2="3.5cm"><title>-0.05</title></line><line stroke="#00E600" stroke-width="2" x1="7.0cm" x2="3.5cm" y1="8.75cm" y2="7.0cm"><title>0.72</title></line><line stroke="#002E00" stroke-width="2" x1="7.0cm" x2="3.5cm" y1="8.75cm" y2="10.5cm"><title>0.14</title></line><line stroke="#4E0000" stroke-width="2" x1="7.0cm" x2="3.5cm" y1="8.75cm" y2="14.0cm"><title>-0.30</title></line><line stroke="#CE0000" stroke-width="2" x1="7.0cm" x2="3.5cm" y1="8.75cm" y2="17.5cm"><title>-0.80</title></line><line stroke="#0B0000" stroke-width="2" x1="7.0cm" x2="3.5cm" y1="12.25cm" y2="3.5cm"><title>-0.05</title></line><line stroke="#00E600" stroke-width="2" x1="7.0cm" x2="3.5cm" y1="12.25cm" y2="7.0cm"><title>0.72</title></line><line stroke="#002E00" stroke-width="2" x1="7.0cm" x2="3.5cm" y1="12.25cm" y2="10.5cm"><title>0.14</title></line><line stroke="#4E0000" stroke-width="2" x1="7.0cm" x2="3.5cm" y1="12.25cm" y2="14.0cm"><title>-0.30</title></line><line stroke="#CE0000" stroke-width="2" x1="7.0cm" x2="3.5cm" y1="12.25cm" y2="17.5cm"><title>-0.80</title></line><line stroke="#0B0000" stroke-width="2" x1="7.0cm" x2="3.5cm" y1="15.75cm" y2="3.5cm"><title>-0.05</title></line><line stroke="#00E600" stroke-width="2" x1="7.0cm" x2="3.5cm" y1="15.75cm" y2="7.0cm"><title>0.72</title></line><line stroke="#002E00" stroke-width="2" x1="7.0cm" x2="3.5cm" y1="15.75cm" y2="10.5cm"><title>0.14</title></line><line stroke="#4E0000" stroke-width="2" x1="7.0cm" x2="3.5cm" y1="15.75cm" y2="14.0cm"><title>-0.30</title></line><line stroke="#CE0000" stroke-width="2" x1="7.0cm" x2="3.5cm" y1="15.75cm" y2="17.5cm"><title>-0.80</title></line><line stroke="#0B0000" stroke-width="2" x1="10.5cm" x2="7.0cm" y1="5.25cm" y2="5.25cm"><title>-0.05</title></line><line stroke="#00E600" stroke-width="2" x1="10.5cm" x2="7.0cm" y1="5.25cm" y2="8.75cm"><title>0.72</title></line><line stroke="#002E00" stroke-width="2" x1="10.5cm" x2="7.0cm" y1="5.25cm" y2="12.25cm"><title>0.14</title></line><line stroke="#4E0000" stroke-width="2" x1="10.5cm" x2="7.0cm" y1="5.25cm" y2="15.75cm"><title>-0.30</title></line><line stroke="#0B0000" stroke-width="2" x1="10.5cm" x2="7.0cm" y1="8.75cm" y2="5.25cm"><title>-0.05</title></line><line stroke="#00E600" stroke-width="2" x1="10.5cm" x2="7.0cm" y1="8.75cm" y2="8.75cm"><title>0.72</title></line><line stroke="#002E00" stroke-width="2" x1="10.5cm" x2="7.0cm" y1="8.75cm" y2="12.25cm"><title>0.14</title></line><line stroke="#4E0000" stroke-width="2" x1="10.5cm" x2="7.0cm" y1="8.75cm" y2="15.75cm"><title>-0.30</title></line><line stroke="#0B0000" stroke-width="2" x1="10.5cm" x2="7.0cm" y1="12.25cm" y2="5.25cm"><title>-0.05</title></line><line stroke="#00E600" stroke-width="2" x1="10.5cm" x2="7.0cm" y1="12.25cm" y2="8.75cm"><title>0.72</title></line><line stroke="#002E00" stroke-width="2" x1="10.5cm" x2="7.0cm" y1="12.25cm" y2="12.25cm"><title>0.14</title></line><line stroke="#4E0000" stroke-width="2" x1="10.5cm" x2="7.0cm" y1="12.25cm" y2="15.75cm"><title>-0.30</title></line><line stroke="#0B0000" stroke-width="2" x1="10.5cm" x2="7.0cm" y1="15.75cm" y2="5.25cm"><title>-0.05</title></line><line stroke="#00E600" stroke-width="2" x1="10.5cm" x2="7.0cm" y1="15.75cm" y2="8.75cm"><title>0.72</title></line><line stroke="#002E00" stroke-width="2" x1="10.5cm" x2="7.0cm" y1="15.75cm" y2="12.25cm"><title>0.14</title></line><line stroke="#4E0000" stroke-width="2" x1="10.5cm" x2="7.0cm" y1="15.75cm" y2="15.75cm"><title>-0.30</title></line><line stroke="#0B0000" stroke-width="2" x1="14.0cm" x2="10.5cm" y1="10.5cm" y2="5.25cm"><title>-0.05</title></line><line stroke="#00E600" stroke-width="2" x1="14.0cm" x2="10.5cm" y1="10.5cm" y2="8.75cm"><title>0.72</title></line><line stroke="#002E00" stroke-width="2" x1="14.0cm" x2="10.5cm" y1="10.5cm" y2="12.25cm"><title>0.14</title></line><line stroke="#4E0000" stroke-width="2" x1="14.0cm" x2="10.5cm" y1="10.5cm" y2="15.75cm"><title>-0.30</title></line></g><g class="nodes" fill="red" id="nodes"><circle cx="3.5cm" cy="3.5cm" fill="#8E8E8E" r="0.6cm"><title>3.00</title></circle><circle cx="3.5cm" cy="7.0cm" fill="#8E8E8E" r="0.6cm"><title>4.00</title></circle><circle cx="3.5cm" cy="10.5cm" fill="#8E8E8E" r="0.6cm"><title>5.00</title></circle><circle cx="3.5cm" cy="14.0cm" fill="#8E8E8E" r="0.6cm"><title>6.00</title></circle><circle cx="3.5cm" cy="17.5cm" fill="#8E8E8E" r="0.6cm"><title>7.00</title></circle><circle cx="7.0cm" cy="5.25cm" fill="#1E1E1E" r="0.6cm"><title>0.00</title></circle><circle cx="7.0cm" cy="8.75cm" fill="#1E1E1E" r="0.6cm"><title>0.00</title></circle><circle cx="7.0cm" cy="12.25cm" fill="#1E1E1E" r="0.6cm"><title>0.00</title></circle><circle cx="7.0cm" cy="15.75cm" fill="#1E1E1E" r="0.6cm"><title>0.00</title></circle><circle cx="10.5cm" cy="5.25cm" fill="#727272" r="0.6cm"><title>0.38</title></circle><circle cx="10.5cm" cy="8.75cm" fill="#727272" r="0.6cm"><title>0.38</title></circle><circle cx="10.5cm" cy="12.25cm" fill="#727272" r="0.6cm"><title>0.38</title></circle><circle cx="10.5cm" cy="15.75cm" fill="#727272" r="0.6cm"><title>0.38</title></circle><circle cx="14.0cm" cy="10.5cm" fill="#4A4A4A" r="0.6cm"><title>0.20</title></circle></g><g class="values" fill="black" id="value"><text fill="#717171" text-anchor="middle" x="3.5cm" y="3.5cm">3.00<title>3.00</title></text><text fill="#717171" text-anchor="middle" x="3.5cm" y="7.0cm">4.00<title>4.00</title></text><text fill="#717171" text-anchor="middle" x="3.5cm" y="10.5cm">5.00<title>5.00</title></text><text fill="#717171" text-anchor="middle" x="3.5cm" y="14.0cm">6.00<title>6.00</title></text><text fill="#717171" text-anchor="middle" x="3.5cm" y="17.5cm">7.00<title>7.00</title></text><text fill="#e1e1e1" text-anchor="middle" x="7.0cm" y="5.25cm">0.00<title>0.00</title></text><text fill="#e1e1e1" text-anchor="middle" x="7.0cm" y="8.75cm">0.00<title>0.00</title></text><text fill="#e1e1e1" text-anchor="middle" x="7.0cm" y="12.25cm">0.00<title>0.00</title></text><text fill="#e1e1e1" text-anchor="middle" x="7.0cm" y="15.75cm">0.00<title>0.00</title></text><text fill="#8d8d8d" text-anchor="middle" x="10.5cm" y="5.25cm">0.38<title>0.38</title></text><text fill="#8d8d8d" text-anchor="middle" x="10.5cm" y="8.75cm">0.38<title>0.38</title></text><text fill="#8d8d8d" text-anchor="middle" x="10.5cm" y="12.25cm">0.38<title>0.38</title></text><text fill="#8d8d8d" text-anchor="middle" x="10.5cm" y="15.75cm">0.38<title>0.38</title></text><text fill="#b5b5b5" text-anchor="middle" x="14.0cm" y="10.5cm">0.20<title>0.20</title></text></g><animate attributeName="opacity" begin="0s" dur="1s" from="0" to="1" /><animate attributeName="opacity" begin="1s" dur="1s" fill="freeze" from="1" to="1" /><animate attributeName="opacity" begin="2s" dur="1s" from="1" to="0" /></g><g id="outer_group" opacity="0"><g class="connections" stroke="green"><line stroke="#000B00" stroke-width="2" x1="7.0cm" x2="3.5cm" y1="5.25cm" y2="3.5cm"><title>0.05</title></line><line stroke="#E60000" stroke-width="2" x1="7.0cm" x2="3.5cm" y1="5.25cm" y2="7.0cm"><title>-0.72</title></line><line stroke="#2E0000" stroke-width="2" x1="7.0cm" x2="3.5cm" y1="5.25cm" y2="10.5cm"><title>-0.14</title></line><line stroke="#004E00" stroke-width="2" x1="7.0cm" x2="3.5cm" y1="5.25cm" y2="14.0cm"><title>0.30</title></line><line stroke="#00CE00" stroke-width="2" x1="7.0cm" x2="3.5cm" y1="5.25cm" y2="17.5cm"><title>0.80</title></line><line stroke="#000B00" stroke-width="2" x1="7.0cm" x2="3.5cm" y1="8.75cm" y2="3.5cm"><title>0.05</title></line><line stroke="#E60000" stroke-width="2" x1="7.0cm" x2="3.5cm" y1="8.75cm" y2="7.0cm"><title>-0.72</title></line><line stroke="#2E0000" stroke-width="2" x1="7.0cm" x2="3.5cm" y1="8.75cm" y2="10.5cm"><title>-0.14</title></line><line stroke="#004E00" stroke-width="2" x1="7.0cm" x2="3.5cm" y1="8.75cm" y2="14.0cm"><title>0.30</title></line><line stroke="#00CE00" stroke-width="2" x1="7.0cm" x2="3.5cm" y1="8.75cm" y2="17.5cm"><title>0.80</title></line><line stroke="#000B00" stroke-width="2" x1="7.0cm" x2="3.5cm" y1="12.25cm" y2="3.5cm"><title>0.05</title></line><line stroke="#E60000" stroke-width="2" x1="7.0cm" x2="3.5cm" y1="12.25cm" y2="7.0cm"><title>-0.72</title></line><line stroke="#2E0000" stroke-width="2" x1="7.0cm" x2="3.5cm" y1="12.25cm" y2="10.5cm"><title>-0.14</title></line><line stroke="#004E00" stroke-width="2" x1="7.0cm" x2="3.5cm" y1="12.25cm" y2="14.0cm"><title>0.30</title></line><line stroke="#00CE00" stroke-width="2" x1="7.0cm" x2="3.5cm" y1="12.25cm" y2="17.5cm"><title>0.80</title></line><line stroke="#000B00" stroke-width="2" x1="7.0cm" x2="3.5cm" y1="15.75cm" y2="3.5cm"><title>0.05</title></line><line stroke="#E60000" stroke-width="2" x1="7.0cm" x2="3.5cm" y1="15.75cm" y2="7.0cm"><title>-0.72</title></line><line stroke="#2E0000" stroke-width="2" x1="7.0cm" x2="3.5cm" y1="15.75cm" y2="10.5cm"><title>-0.14</title></line><line stroke="#004E00" stroke-width="2" x1="7.0cm" x2="3.5cm" y1="15.75cm" y2="14.0cm"><title>0.30</title></line><line stroke="#00CE00" stroke-width="2" x1="7.0cm" x2="3.5cm" y1="15.75cm" y2="17.5cm"><title>0.80</title></line><line stroke="#000B00" stroke-width="2" x1="10.5cm" x2="7.0cm" y1="5.25cm" y2="5.25cm"><title>0.05</title></line><line stroke="#E60000" stroke-width="2" x1="10.5cm" x2="7.0cm" y1="5.25cm" y2="8.75cm"><title>-0.72</title></line><line stroke="#2E0000" stroke-width="2" x1="10.5cm" x2="7.0cm" y1="5.25cm" y2="12.25cm"><title>-0.14</title></line><line stroke="#004E00" stroke-width="2" x1="10.5cm" x2="7.0cm" y1="5.25cm" y2="15.75cm"><title>0.30</title></line><line stroke="#000B00" stroke-width="2" x1="10.5cm" x2="7.0cm" y1="8.75cm" y2="5.25cm"><title>0.05</title></line><line stroke="#E60000" stroke-width="2" x1="10.5cm" x2="7.0cm" y1="8.75cm" y2="8.75cm"><title>-0.72</title></line><line stroke="#2E0000" stroke-width="2" x1="10.5cm" x2="7.0cm" y1="8.75cm" y2="12.25cm"><title>-0.14</title></line><line stroke="#004E00" stroke-width="2" x1="10.5cm" x2="7.0cm" y1="8.75cm" y2="15.75cm"><title>0.30</title></line><line stroke="#000B00" stroke-width="2" x1="10.5cm" x2="7.0cm" y1="12.25cm" y2="5.25cm"><title>0.05</title></line><line stroke="#E60000" stroke-width="2" x1="10.5cm" x2="7.0cm" y1="12.25cm" y2="8.75cm"><title>-0.72</title></line><line stroke="#2E0000" stroke-width="2" x1="10.5cm" x2="7.0cm" y1="12.25cm" y2="12.25cm"><title>-0.14</title></line><line stroke="#004E00" stroke-width="2" x1="10.5cm" x2="7.0cm" y1="12.25cm" y2="15.75cm"><title>0.30</title></line><line stroke="#000B00" stroke-width="2" x1="10.5cm" x2="7.0cm" y1="15.75cm" y2="5.25cm"><title>0.05</title></line><line stroke="#E60000" stroke-width="2" x1="10.5cm" x2="7.0cm" y1="15.75cm" y2="8.75cm"><title>-0.72</title></line><line stroke="#2E0000" stroke-width="2" x1="10.5cm" x2="7.0cm" y1="15.75cm" y2="12.25cm"><title>-0.14</title></line><line stroke="#004E00" stroke-width="2" x1="10.5cm" x2="7.0cm" y1="15.75cm" y2="15.75cm"><title>0.30</title></line><line stroke="#000B00" stroke-width="2" x1="14.0cm" x2="10.5cm" y1="10.5cm" y2="5.25cm"><title>0.05</title></line><line stroke="#E60000" stroke-width="2" x1="14.0cm" x2="10.5cm" y1="10.5cm" y2="8.75cm"><title>-0.72</title></line><line stroke="#2E0000" stroke-width="2" x1="14.0cm" x2="10.5cm" y1="10.5cm" y2="12.25cm"><title>-0.14</title></line><line stroke="#004E00" stroke-width="2" x1="14.0cm" x2="10.5cm" y1="10.5cm" y2="15.75cm"><title>0.30</title></line></g><g class="nodes" fill="red" id="nodes"><circle cx="3.5cm" cy="3.5cm" fill="#8E8E8E" r="0.6cm"><title>3.00</title></circle><circle cx="3.5cm" cy="7.0cm" fill="#8E8E8E" r="0.6cm"><title>4.00</title></circle><circle cx="3.5cm" cy="10.5cm" fill="#8E8E8E" r="0.6cm"><title>5.00</title></circle><circle cx="3.5cm" cy="14.0cm" fill="#8E8E8E" r="0.6cm"><title>6.00</title></circle><circle cx="3.5cm" cy="17.5cm" fill="#8E8E8E" r="0.6cm"><title>7.00</title></circle><circle cx="7.0cm" cy="5.25cm" fill="#FFFFFF" r="0.6cm"><title>4.40</title></circle><circle cx="7.0cm" cy="8.75cm" fill="#FFFFFF" r="0.6cm"><title>4.40</title></circle><circle cx="7.0cm" cy="12.25cm" fill="#FFFFFF" r="0.6cm"><title>4.40</title></circle><circle cx="7.0cm" cy="15.75cm" fill="#FFFFFF" r="0.6cm"><title>4.40</title></circle><circle cx="10.5cm" cy="5.25cm" fill="#2B2B2B" r="0.6cm"><title>0.06</title></circle><circle cx="10.5cm" cy="8.75cm" fill="#2B2B2B" r="0.6cm"><title>0.06</title></circle><circle cx="10.5cm" cy="12.25cm" fill="#2B2B2B" r="0.6cm"><title>0.06</title></circle><circle cx="10.5cm" cy="15.75cm" fill="#2B2B2B" r="0.6cm"><title>0.06</title></circle><circle cx="14.0cm" cy="10.5cm" fill="#1E1E1E" r="0.6cm"><title>0.00</title></circle></g><g class="values" fill="black" id="value"><text fill="#717171" text-anchor="middle" x="3.5cm" y="3.5cm">3.00<title>3.00</title></text><text fill="#717171" text-anchor="middle" x="3.5cm" y="7.0cm">4.00<title>4.00</title></text><text fill="#717171" text-anchor="middle" x="3.5cm" y="10.5cm">5.00<title>5.00</title></text><text fill="#717171" text-anchor="middle" x="3.5cm" y="14.0cm">6.00<title>6.00</title></text><text fill="#717171" text-anchor="middle" x="3.5cm" y="17.5cm">7.00<title>7.00</title></text><text fill="#000000" text-anchor="middle" x="7.0cm" y="5.25cm">4.40<title>4.40</title></text><text fill="#000000" text-anchor="middle" x="7.0cm" y="8.75cm">4.40<title>4.40</title></text><text fill="#000000" text-anchor="middle" x="7.0cm" y="12.25cm">4.40<title>4.40</title></text><text fill="#000000" text-anchor="middle" x="7.0cm" y="15.75cm">4.40<title>4.40</title></text><text fill="#d4d4d4" text-anchor="middle" x="10.5cm" y="5.25cm">0.06<title>0.06</title></text><text fill="#d4d4d4" text-anchor="middle" x="10.5cm" y="8.75cm">0.06<title>0.06</title></text><text fill="#d4d4d4" text-anchor="middle" x="10.5cm" y="12.25cm">0.06<title>0.06</title></text><text fill="#d4d4d4" text-anchor="middle" x="10.5cm" y="15.75cm">0.06<title>0.06</title></text><text fill="#e1e1e1" text-anchor="middle" x="14.0cm" y="10.5cm">0.00<title>0.00</title></text></g><animate attributeName="opacity" begin="2s" dur="1s" from="0" to="1" /><animate attributeName="opacity" begin="3s" dur="1s" fill="freeze" from="1" to="1" /></g><g id="outer_group" opacity="0"><g class="connections" stroke="green"><line stroke="#0B0000" stroke-width="2" x1="7.0cm" x2="3.5cm" y1="5.25cm" y2="3.5cm"><title>-0.05</title></line><line stroke="#00E600" stroke-width="2" x1="7.0cm" x2="3.5cm" y1="5.25cm" y2="7.0cm"><title>0.72</title></line><line stroke="#002E00" stroke-width="2" x1="7.0cm" x2="3.5cm" y1="5.25cm" y2="10.5cm"><title>0.14</title></line><line stroke="#4E0000" stroke-width="2" x1="7.0cm" x2="3.5cm" y1="5.25cm" y2="14.0cm"><title>-0.30</title></line><line stroke="#CE0000" stroke-width="2" x1="7.0cm" x2="3.5cm" y1="5.25cm" y2="17.5cm"><title>-0.80</title></line><line stroke="#0B0000" stroke-width="2" x1="7.0cm" x2="3.5cm" y1="8.75cm" y2="3.5cm"><title>-0.05</title></line><line stroke="#00E600" stroke-width="2" x1="7.0cm" x2="3.5cm" y1="8.75cm" y2="7.0cm"><title>0.72</title></line><line stroke="#002E00" stroke-width="2" x1="7.0cm" x2="3.5cm" y1="8.75cm" y2="10.5cm"><title>0.14</title></line><line stroke="#4E0000" stroke-width="2" x1="7.0cm" x2="3.5cm" y1="8.75cm" y2="14.0cm"><title>-0.30</title></line><line stroke="#CE0000" stroke-width="2" x1="7.0cm" x2="3.5cm" y1="8.75cm" y2="17.5cm"><title>-0.80</title></line><line stroke="#0B0000" stroke-width="2" x1="7.0cm" x2="3.5cm" y1="12.25cm" y2="3.5cm"><title>-0.05</title></line><line stroke="#00E600" stroke-width="2" x1="7.0cm" x2="3.5cm" y1="12.25cm" y2="7.0cm"><title>0.72</title></line><line stroke="#002E00" stroke-width="2" x1="7.0cm" x2="3.5cm" y1="12.25cm" y2="10.5cm"><title>0.14</title></line><line stroke="#4E0000" stroke-width="2" x1="7.0cm" x2="3.5cm" y1="12.25cm" y2="14.0cm"><title>-0.30</title></line><line stroke="#CE0000" stroke-width="2" x1="7.0cm" x2="3.5cm" y1="12.25cm" y2="17.5cm"><title>-0.80</title></line><line stroke="#0B0000" stroke-width="2" x1="7.0cm" x2="3.5cm" y1="15.75cm" y2="3.5cm"><title>-0.05</title></line><line stroke="#00E600" stroke-width="2" x1="7.0cm" x2="3.5cm" y1="15.75cm" y2="7.0cm"><title>0.72</title></line><line stroke="#002E00" stroke-width="2" x1="7.0cm" x2="3.5cm" y1="15.75cm" y2="10.5cm"><title>0.14</title></line><line stroke="#4E0000" stroke-width="2" x1="7.0cm" x2="3.5cm" y1="15.75cm" y2="14.0cm"><title>-0.30</title></line><line stroke="#CE0000" stroke-width="2" x1="7.0cm" x2="3.5cm" y1="15.75cm" y2="17.5cm"><title>-0.80</title></line><line stroke="#0B0000" stroke-width="2" x1="10.5cm" x2="7.0cm" y1="5.25cm" y2="5.25cm"><title>-0.05</title></line><line stroke="#00E600" stroke-width="2" x1="10.5cm" x2="7.0cm" y1="5.25cm" y2="8.75cm"><title>0.72</title></line><line stroke="#002E00" stroke-width="2" x1="10.5cm" x2="7.0cm" y1="5.25cm" y2="12.25cm"><title>0.14</title></line><line stroke="#4E0000" stroke-width="2" x1="10.5cm" x2="7.0cm" y1="5.25cm" y2="15.75cm"><title>-0.30</title></line><line stroke="#0B0000" stroke-width="2" x1="10.5cm" x2="7.0cm" y1="8.75cm" y2="5.25cm"><title>-0.05</title></line><line stroke="#00E600" stroke-width="2" x1="10.5cm" x2="7.0cm" y1="8.75cm" y2="8.75cm"><title>0.72</title></line><line stroke="#002E00" stroke-width="2" x1="10.5cm" x2="7.0cm" y1="8.75cm" y2="12.25cm"><title>0.14</title></line><line stroke="#4E0000" stroke-width="2" x1="10.5cm" x2="7.0cm" y1="8.75cm" y2="15.75cm"><title>-0.30</title></line><line stroke="#0B0000" stroke-width="2" x1="10.5cm" x2="7.0cm" y1="12.25cm" y2="5.25cm"><title>-0.05</title></line><line stroke="#00E600" stroke-width="2" x1="10.5cm" x2="7.0cm" y1="12.25cm" y2="8.75cm"><title>0.72</title></line><line stroke="#002E00" stroke-width="2" x1="10.5cm" x2="7.0cm" y1="12.25cm" y2="12.25cm"><title>0.14</title></line><line stroke="#4E0000" stroke-width="2" x1="10.5cm" x2="7.0cm" y1="12.25cm" y2="15.75cm"><title>-0.30</title></line><line stroke="#0B0000" stroke-width="2" x1="10.5cm" x2="7.0cm" y1="15.75cm" y2="5.25cm"><title>-0.05</title></line><line stroke="#00E600" stroke-width="2" x1="10.5cm" x2="7.0cm" y1="15.75cm" y2="8.75cm"><title>0.72</title></line><line stroke="#002E00" stroke-width="2" x1="10.5cm" x2="7.0cm" y1="15.75cm" y2="12.25cm"><title>0.14</title></line><line stroke="#4E0000" stroke-width="2" x1="10.5cm" x2="7.0cm" y1="15.75cm" y2="15.75cm"><title>-0.30</title></line><line stroke="#0B0000" stroke-width="2" x1="14.0cm" x2="10.5cm" y1="10.5cm" y2="5.25cm"><title>-0.05</title></line><line stroke="#00E600" stroke-width="2" x1="14.0cm" x2="10.5cm" y1="10.5cm" y2="8.75cm"><title>0.72</title></line><line stroke="#002E00" stroke-width="2" x1="14.0cm" x2="10.5cm" y1="10.5cm" y2="12.25cm"><title>0.14</title></line><line stroke="#4E0000" stroke-width="2" x1="14.0cm" x2="10.5cm" y1="10.5cm" y2="15.75cm"><title>-0.30</title></line></g><g class="nodes" fill="red" id="nodes"><circle cx="3.5cm" cy="3.5cm" fill="#8E8E8E" r="0.6cm"><title>3.00</title></circle><circle cx="3.5cm" cy="7.0cm" fill="#8E8E8E" r="0.6cm"><title>4.00</title></circle><circle cx="3.5cm" cy="10.5cm" fill="#8E8E8E" r="0.6cm"><title>5.00</title></circle><circle cx="3.5cm" cy="14.0cm" fill="#8E8E8E" r="0.6cm"><title>6.00</title></circle><circle cx="3.5cm" cy="17.5cm" fill="#8E8E8E" r="0.6cm"><title>7.00</title></circle><circle cx="7.0cm" cy="5.25cm" fill="#1E1E1E" r="0.6cm"><title>0.00</title></circle><circle cx="7.0cm" cy="8.75cm" fill="#1E1E1E" r="0.6cm"><title>0.00</title></circle><circle cx="7.0cm" cy="12.25cm" fill="#1E1E1E" r="0.6cm"><title>0.00</title></circle><circle cx="7.0cm" cy="15.75cm" fill="#1E1E1E" r="0.6cm"><title>0.00</title></circle><circle cx="10.5cm" cy="5.25cm" fill="#727272" r="0.6cm"><title>0.38</title></circle><circle cx="10.5cm" cy="8.75cm" fill="#727272" r="0.6cm"><title>0.38</title></circle><circle cx="10.5cm" cy="12.25cm" fill="#727272" r="0.6cm"><title>0.38</title></circle><circle cx="10.5cm" cy="15.75cm" fill="#727272" r="0.6cm"><title>0.38</title></circle><circle cx="14.0cm" cy="10.5cm" fill="#4A4A4A" r="0.6cm"><title>0.20</title></circle></g><g class="values" fill="black" id="value"><text fill="#717171" text-anchor="middle" x="3.5cm" y="3.5cm">3.00<title>3.00</title></text><text fill="#717171" text-anchor="middle" x="3.5cm" y="7.0cm">4.00<title>4.00</title></text><text fill="#717171" text-anchor="middle" x="3.5cm" y="10.5cm">5.00<title>5.00</title></text><text fill="#717171" text-anchor="middle" x="3.5cm" y="14.0cm">6.00<title>6.00</title></text><text fill="#717171" text-anchor="middle" x="3.5cm" y="17.5cm">7.00<title>7.00</title></text><text fill="#e1e1e1" text-anchor="middle" x="7.0cm" y="5.25cm">0.00<title>0.00</title></text><text fill="#e1e1e1" text-anchor="middle" x="7.0cm" y="8.75cm">0.00<title>0.00</title></text><text fill="#e1e1e1" text-anchor="middle" x="7.0cm" y="12.25cm">0.00<title>0.00</title></text><text fill="#e1e1e1" text-anchor="middle" x="7.0cm" y="15.75cm">0.00<title>0.00</title></text><text fill="#8d8d8d" text-anchor="middle" x="10.5cm" y="5.25cm">0.38<title>0.38</title></text><text fill="#8d8d8d" text-anchor="middle" x="10.5cm" y="8.75cm">0.38<title>0.38</title></text><text fill="#8d8d8d" text-anchor="middle" x="10.5cm" y="12.25cm">0.38<title>0.38</title></text><text fill="#8d8d8d" text-anchor="middle" x="10.5cm" y="15.75cm">0.38<title>0.38</title></text><text fill="#b5b5b5" text-anchor="middle" x="14.0cm" y="10.5cm">0.20<title>0.20</title></text></g><animate attributeName="opacity" begin="0s" dur="1s" from="0" to="1" /><animate attributeName="opacity" begin="1s" dur="1s" fill="freeze" from="1" to="1" /><animate attributeName="opacity" begin="2s" dur="1s" from="1" to="0" /></g><g id="outer_group" opacity="0"><g class="connections" stroke="green"><line stroke="#000B00" stroke-width="2" x1="7.0cm" x2="3.5cm" y1="5.25cm" y2="3.5cm"><title>0.05</title></line><line stroke="#E60000" stroke-width="2" x1="7.0cm" x2="3.5cm" y1="5.25cm" y2="7.0cm"><title>-0.72</title></line><line stroke="#2E0000" stroke-width="2" x1="7.0cm" x2="3.5cm" y1="5.25cm" y2="10.5cm"><title>-0.14</title></line><line stroke="#004E00" stroke-width="2" x1="7.0cm" x2="3.5cm" y1="5.25cm" y2="14.0cm"><title>0.30</title></line><line stroke="#00CE00" stroke-width="2" x1="7.0cm" x2="3.5cm" y1="5.25cm" y2="17.5cm"><title>0.80</title></line><line stroke="#000B00" stroke-width="2" x1="7.0cm" x2="3.5cm" y1="8.75cm" y2="3.5cm"><title>0.05</title></line><line stroke="#E60000" stroke-width="2" x1="7.0cm" x2="3.5cm" y1="8.75cm" y2="7.0cm"><title>-0.72</title></line><line stroke="#2E0000" stroke-width="2" x1="7.0cm" x2="3.5cm" y1="8.75cm" y2="10.5cm"><title>-0.14</title></line><line stroke="#004E00" stroke-width="2" x1="7.0cm" x2="3.5cm" y1="8.75cm" y2="14.0cm"><title>0.30</title></line><line stroke="#00CE00" stroke-width="2" x1="7.0cm" x2="3.5cm" y1="8.75cm" y2="17.5cm"><title>0.80</title></line><line stroke="#000B00" stroke-width="2" x1="7.0cm" x2="3.5cm" y1="12.25cm" y2="3.5cm"><title>0.05</title></line><line stroke="#E60000" stroke-width="2" x1="7.0cm" x2="3.5cm" y1="12.25cm" y2="7.0cm"><title>-0.72</title></line><line stroke="#2E0000" stroke-width="2" x1="7.0cm" x2="3.5cm" y1="12.25cm" y2="10.5cm"><title>-0.14</title></line><line stroke="#004E00" stroke-width="2" x1="7.0cm" x2="3.5cm" y1="12.25cm" y2="14.0cm"><title>0.30</title></line><line stroke="#00CE00" stroke-width="2" x1="7.0cm" x2="3.5cm" y1="12.25cm" y2="17.5cm"><title>0.80</title></line><line stroke="#000B00" stroke-width="2" x1="7.0cm" x2="3.5cm" y1="15.75cm" y2="3.5cm"><title>0.05</title></line><line stroke="#E60000" stroke-width="2" x1="7.0cm" x2="3.5cm" y1="15.75cm" y2="7.0cm"><title>-0.72</title></line><line stroke="#2E0000" stroke-width="2" x1="7.0cm" x2="3.5cm" y1="15.75cm" y2="10.5cm"><title>-0.14</title></line><line stroke="#004E00" stroke-width="2" x1="7.0cm" x2="3.5cm" y1="15.75cm" y2="14.0cm"><title>0.30</title></line><line stroke="#00CE00" stroke-width="2" x1="7.0cm" x2="3.5cm" y1="15.75cm" y2="17.5cm"><title>0.80</title></line><line stroke="#000B00" stroke-width="2" x1="10.5cm" x2="7.0cm" y1="5.25cm" y2="5.25cm"><title>0.05</title></line><line stroke="#E60000" stroke-width="2" x1="10.5cm" x2="7.0cm" y1="5.25cm" y2="8.75cm"><title>-0.72</title></line><line stroke="#2E0000" stroke-width="2" x1="10.5cm" x2="7.0cm" y1="5.25cm" y2="12.25cm"><title>-0.14</title></line><line stroke="#004E00" stroke-width="2" x1="10.5cm" x2="7.0cm" y1="5.25cm" y2="15.75cm"><title>0.30</title></line><line stroke="#000B00" stroke-width="2" x1="10.5cm" x2="7.0cm" y1="8.75cm" y2="5.25cm"><title>0.05</title></line><line stroke="#E60000" stroke-width="2" x1="10.5cm" x2="7.0cm" y1="8.75cm" y2="8.75cm"><title>-0.72</title></line><line stroke="#2E0000" stroke-width="2" x1="10.5cm" x2="7.0cm" y1="8.75cm" y2="12.25cm"><title>-0.14</title></line><line stroke="#004E00" stroke-width="2" x1="10.5cm" x2="7.0cm" y1="8.75cm" y2="15.75cm"><title>0.30</title></line><line stroke="#000B00" stroke-width="2" x1="10.5cm" x2="7.0cm" y1="12.25cm" y2="5.25cm"><title>0.05</title></line><line stroke="#E60000" stroke-width="2" x1="10.5cm" x2="7.0cm" y1="12.25cm" y2="8.75cm"><title>-0.72</title></line><line stroke="#2E0000" stroke-width="2" x1="10.5cm" x2="7.0cm" y1="12.25cm" y2="12.25cm"><title>-0.14</title></line><line stroke="#004E00" stroke-width="2" x1="10.5cm" x2="7.0cm" y1="12.25cm" y2="15.75cm"><title>0.30</title></line><line stroke="#000B00" stroke-width="2" x1="10.5cm" x2="7.0cm" y1="15.75cm" y2="5.25cm"><title>0.05</title></line><line stroke="#E60000" stroke-width="2" x1="10.5cm" x2="7.0cm" y1="15.75cm" y2="8.75cm"><title>-0.72</title></line><line stroke="#2E0000" stroke-width="2" x1="10.5cm" x2="7.0cm" y1="15.75cm" y2="12.25cm"><title>-0.14</title></line><line stroke="#004E00" stroke-width="2" x1="10.5cm" x2="7.0cm" y1="15.75cm" y2="15.75cm"><title>0.30</title></line><line stroke="#000B00" stroke-width="2" x1="14.0cm" x2="10.5cm" y1="10.5cm" y2="5.25cm"><title>0.05</title></line><line stroke="#E60000" stroke-width="2" x1="14.0cm" x2="10.5cm" y1="10.5cm" y2="8.75cm"><title>-0.72</title></line><line stroke="#2E0000" stroke-width="2" x1="14.0cm" x2="10.5cm" y1="10.5cm" y2="12.25cm"><title>-0.14</title></line><line stroke="#004E00" stroke-width="2" x1="14.0cm" x2="10.5cm" y1="10.5cm" y2="15.75cm"><title>0.30</title></line></g><g class="nodes" fill="red" id="nodes"><circle cx="3.5cm" cy="3.5cm" fill="#8E8E8E" r="0.6cm"><title>3.00</title></circle><circle cx="3.5cm" cy="7.0cm" fill="#8E8E8E" r="0.6cm"><title>4.00</title></circle><circle cx="3.5cm" cy="10.5cm" fill="#8E8E8E" r="0.6cm"><title>5.00</title></circle><circle cx="3.5cm" cy="14.0cm" fill="#8E8E8E" r="0.6cm"><title>6.00</title></circle><circle cx="3.5cm" cy="17.5cm" fill="#8E8E8E" r="0.6cm"><title>7.00</title></circle><circle cx="7.0cm" cy="5.25cm" fill="#FFFFFF" r="0.6cm"><title>4.40</title></circle><circle cx="7.0cm" cy="8.75cm" fill="#FFFFFF" r="0.6cm"><title>4.40</title></circle><circle cx="7.0cm" cy="12.25cm" fill="#FFFFFF" r="0.6cm"><title>4.40</title></circle><circle cx="7.0cm" cy="15.75cm" fill="#FFFFFF" r="0.6cm"><title>4.40</title></circle><circle cx="10.5cm" cy="5.25cm" fill="#2B2B2B" r="0.6cm"><title>0.06</title></circle><circle cx="10.5cm" cy="8.75cm" fill="#2B2B2B" r="0.6cm"><title>0.06</title></circle><circle cx="10.5cm" cy="12.25cm" fill="#2B2B2B" r="0.6cm"><title>0.06</title></circle><circle cx="10.5cm" cy="15.75cm" fill="#2B2B2B" r="0.6cm"><title>0.06</title></circle><circle cx="14.0cm" cy="10.5cm" fill="#1E1E1E" r="0.6cm"><title>0.00</title></circle></g><g class="values" fill="black" id="value"><text fill="#717171" text-anchor="middle" x="3.5cm" y="3.5cm">3.00<title>3.00</title></text><text fill="#717171" text-anchor="middle" x="3.5cm" y="7.0cm">4.00<title>4.00</title></text><text fill="#717171" text-anchor="middle" x="3.5cm" y="10.5cm">5.00<title>5.00</title></text><text fill="#717171" text-anchor="middle" x="3.5cm" y="14.0cm">6.00<title>6.00</title></text><text fill="#717171" text-anchor="middle" x="3.5cm" y="17.5cm">7.00<title>7.00</title></text><text fill="#000000" text-anchor="middle" x="7.0cm" y="5.25cm">4.40<title>4.40</title></text><text fill="#000000" text-anchor="middle" x="7.0cm" y="8.75cm">4.40<title>4.40</title></text><text fill="#000000" text-anchor="middle" x="7.0cm" y="12.25cm">4.40<title>4.40</title></text><text fill="#000000" text-anchor="middle" x="7.0cm" y="15.75cm">4.40<title>4.40</title></text><text fill="#d4d4d4" text-anchor="middle" x="10.5cm" y="5.25cm">0.06<title>0.06</title></text><text fill="#d4d4d4" text-anchor="middle" x="10.5cm" y="8.75cm">0.06<title>0.06</title></text><text fill="#d4d4d4" text-anchor="middle" x="10.5cm" y="12.25cm">0.06<title>0.06</title></text><text fill="#d4d4d4" text-anchor="middle" x="10.5cm" y="15.75cm">0.06<title>0.06</title></text><text fill="#e1e1e1" text-anchor="middle" x="14.0cm" y="10.5cm">0.00<title>0.00</title></text></g><animate attributeName="opacity" begin="2s" dur="1s" from="0" to="1" /><animate attributeName="opacity" begin="3s" dur="1s" fill="freeze" from="1" to="1" /></g></svg>