<?xml version="1.0" encoding="utf-8" ?>
<svg baseProfile="full" height="100%" version="1.1" width="100%" xmlns="http://www.w3.org/2000/svg" xmlns:ev="http://www.w3.org/2001/xml-events" xmlns:xlink="http://www.w3.org/1999/xlink"><defs /><style type="text/css"><![CDATA[
		circle:hover {
			stroke: black;
			stroke-width: 2;
			fill: lightgreen 
		}
	]]></style><style type="text/css"><![CDATA[
		line:hover {
			stroke: black;
			stroke-width: 4;
		}
	]]></style><g id="outer_group" opacity="0"><g class="connections" stroke="green"><line stroke="#00FF00" stroke-width="2" x1="7.0cm" x2="3.5cm" y1="5.25cm" y2="3.5cm"><title>0.76</title></line><line stroke="#00FF00" stroke-width="2" x1="7.0cm" x2="3.5cm" y1="5.25cm" y2="7.0cm"><title>0.76</title></line><line stroke="#00FF00" stroke-width="2" x1="7.0cm" x2="3.5cm" y1="5.25cm" y2="10.5cm"><title>0.76</title></line><line stroke="#00FF00" stroke-width="2" x1="7.0cm" x2="3.5cm" y1="5.25cm" y2="14.0cm"><title>0.76</title></line><line stroke="#00FF00" stroke-width="2" x1="7.0cm" x2="3.5cm" y1="5.25cm" y2="17.5cm"><title>0.76</title></line><line stroke="#00FF00" stroke-width="2" x1="7.0cm" x2="3.5cm" y1="5.25cm" y2="21.0cm"><title>0.76</title></line><line stroke="#6A0000" stroke-width="2" x1="7.0cm" x2="3.5cm" y1="8.75cm" y2="3.5cm"><title>-0.09</title></line><line stroke="#6A0000" stroke-width="2" x1="7.0cm" x2="3.5cm" y1="8.75cm" y2="7.0cm"><title>-0.09</title></line><line stroke="#6A0000" stroke-width="2" x1="7.0cm" x2="3.5cm" y1="8.75cm" y2="10.5cm"><title>-0.09</title></line><line stroke="#6A0000" stroke-width="2" x1="7.0cm" x2="3.5cm" y1="8.75cm" y2="14.0cm"><title>-0.09</title></line><line stroke="#6A0000" stroke-width="2" x1="7.0cm" x2="3.5cm" y1="8.75cm" y2="17.5cm"><title>-0.09</title></line><line stroke="#6A0000" stroke-width="2" x1="7.0cm" x2="3.5cm" y1="8.75cm" y2="21.0cm"><title>-0.09</title></line><line stroke="#DE0000" stroke-width="2" x1="7.0cm" x2="3.5cm" y1="12.25cm" y2="3.5cm"><title>-0.19</title></line><line stroke="#DE0000" stroke-width="2" x1="7.0cm" x2="3.5cm" y1="12.25cm" y2="7.0cm"><title>-0.19</title></line><line stroke="#DE0000" stroke-width="2" x1="7.0cm" x2="3.5cm" y1="12.25cm" y2="10.5cm"><title>-0.19</title></line><line stroke="#DE0000" stroke-width="2" x1="7.0cm" x2="3.5cm" y1="12.25cm" y2="14.0cm"><title>-0.19</title></line><line stroke="#DE0000" stroke-width="2" x1="7.0cm" x2="3.5cm" y1="12.25cm" y2="17.5cm"><title>-0.19</title></line><line stroke="#DE0000" stroke-width="2" x1="7.0cm" x2="3.5cm" y1="12.25cm" y2="21.0cm"><title>-0.19</title></line><line stroke="#00E600" stroke-width="2" x1="7.0cm" x2="3.5cm" y1="15.75cm" y2="3.5cm"><title>0.68</title></line><line stroke="#00E600" stroke-width="2" x1="7.0cm" x2="3.5cm" y1="15.75cm" y2="7.0cm"><title>0.68</title></line><line stroke="#00E600" stroke-width="2" x1="7.0cm" x2="3.5cm" y1="15.75cm" y2="10.5cm"><title>0.68</title></line><line stroke="#00E600" stroke-width="2" x1="7.0cm" x2="3.5cm" y1="15.75cm" y2="14.0cm"><title>0.68</title></line><line stroke="#00E600" stroke-width="2" x1="7.0cm" x2="3.5cm" y1="15.75cm" y2="17.5cm"><title>0.68</title></line><line stroke="#00E600" stroke-width="2" x1="7.0cm" x2="3.5cm" y1="15.75cm" y2="21.0cm"><title>0.68</title></line><line stroke="#FF0000" stroke-width="2" x1="7.0cm" x2="3.5cm" y1="19.25cm" y2="3.5cm"><title>-0.22</title></line><line stroke="#FF0000" stroke-width="2" x1="7.0cm" x2="3.5cm" y1="19.25cm" y2="7.0cm"><title>-0.22</title></line><line stroke="#FF0000" stroke-width="2" x1="7.0cm" x2="3.5cm" y1="19.25cm" y2="10.5cm"><title>-0.22</title></line><line stroke="#FF0000" stroke-width="2" x1="7.0cm" x2="3.5cm" y1="19.25cm" y2="14.0cm"><title>-0.22</title></line><line stroke="#FF0000" stroke-width="2" x1="7.0cm" x2="3.5cm" y1="19.25cm" y2="17.5cm"><title>-0.22</title></line><line stroke="#FF0000" stroke-width="2" x1="7.0cm" x2="3.5cm" y1="19.25cm" y2="21.0cm"><title>-0.22</title></line><line stroke="#580000" stroke-width="2" x1="10.5cm" x2="7.0cm" y1="5.25cm" y2="5.25cm"><title>-0.07</title></line><line stroke="#580000" stroke-width="2" x1="10.5cm" x2="7.0cm" y1="5.25cm" y2="8.75cm"><title>-0.07</title></line><line stroke="#580000" stroke-width="2" x1="10.5cm" x2="7.0cm" y1="5.25cm" y2="12.25cm"><title>-0.07</title></line><line stroke="#580000" stroke-width="2" x1="10.5cm" x2="7.0cm" y1="5.25cm" y2="15.75cm"><title>-0.07</title></line><line stroke="#580000" stroke-width="2" x1="10.5cm" x2="7.0cm" y1="5.25cm" y2="19.25cm"><title>-0.07</title></line><line stroke="#005100" stroke-width="2" x1="10.5cm" x2="7.0cm" y1="8.75cm" y2="5.25cm"><title>0.06</title></line><line stroke="#005100" stroke-width="2" x1="10.5cm" x2="7.0cm" y1="8.75cm" y2="8.75cm"><title>0.06</title></line><line stroke="#005100" stroke-width="2" x1="10.5cm" x2="7.0cm" y1="8.75cm" y2="12.25cm"><title>0.06</title></line><line stroke="#005100" stroke-width="2" x1="10.5cm" x2="7.0cm" y1="8.75cm" y2="15.75cm"><title>0.06</title></line><line stroke="#005100" stroke-width="2" x1="10.5cm" x2="7.0cm" y1="8.75cm" y2="19.25cm"><title>0.06</title></line><line stroke="#750000" stroke-width="2" x1="10.5cm" x2="7.0cm" y1="12.25cm" y2="5.25cm"><title>-0.09</title></line><line stroke="#750000" stroke-width="2" x1="10.5cm" x2="7.0cm" y1="12.25cm" y2="8.75cm"><title>-0.09</title></line><line stroke="#750000" stroke-width="2" x1="10.5cm" x2="7.0cm" y1="12.25cm" y2="12.25cm"><title>-0.09</title></line><line stroke="#750000" stroke-width="2" x1="10.5cm" x2="7.0cm" y1="12.25cm" y2="15.75cm"><title>-0.09</title></line><line stroke="#750000" stroke-width="2" x1="10.5cm" x2="7.0cm" y1="12.25cm" y2="19.25cm"><title>-0.09</title></line><line stroke="#00FF00" stroke-width="2" x1="10.5cm" x2="7.0cm" y1="15.75cm" y2="5.25cm"><title>0.19</title></line><line stroke="#00FF00" stroke-width="2" x1="10.5cm" x2="7.0cm" y1="15.75cm" y2="8.75cm"><title>0.19</title></line><line stroke="#00FF00" stroke-width="2" x1="10.5cm" x2="7.0cm" y1="15.75cm" y2="12.25cm"><title>0.19</title></line><line stroke="#00FF00" stroke-width="2" x1="10.5cm" x2="7.0cm" y1="15.75cm" y2="15.75cm"><title>0.19</title></line><line stroke="#00FF00" stroke-width="2" x1="10.5cm" x2="7.0cm" y1="15.75cm" y2="19.25cm"><title>0.19</title></line><line stroke="#FF0000" stroke-width="2" x1="10.5cm" x2="7.0cm" y1="19.25cm" y2="5.25cm"><title>-0.19</title></line><line stroke="#FF0000" stroke-width="2" x1="10.5cm" x2="7.0cm" y1="19.25cm" y2="8.75cm"><title>-0.19</title></line><line stroke="#FF0000" stroke-width="2" x1="10.5cm" x2="7.0cm" y1="19.25cm" y2="12.25cm"><title>-0.19</title></line><line stroke="#FF0000" stroke-width="2" x1="10.5cm" x2="7.0cm" y1="19.25cm" y2="15.75cm"><title>-0.19</title></line><line stroke="#FF0000" stroke-width="2" x1="10.5cm" x2="7.0cm" y1="19.25cm" y2="19.25cm"><title>-0.19</title></line><line stroke="#00FF00" stroke-width="2" x1="14.0cm" x2="10.5cm" y1="12.25cm" y2="5.25cm"><title>0.07</title></line><line stroke="#00FF00" stroke-width="2" x1="14.0cm" x2="10.5cm" y1="12.25cm" y2="8.75cm"><title>0.07</title></line><line stroke="#00FF00" stroke-width="2" x1="14.0cm" x2="10.5cm" y1="12.25cm" y2="12.25cm"><title>0.07</title></line><line stroke="#00FF00" stroke-width="2" x1="14.0cm" x2="10.5cm" y1="12.25cm" y2="15.75cm"><title>0.07</title></line><line stroke="#00FF00" stroke-width="2" x1="14.0cm" x2="10.5cm" y1="12.25cm" y2="19.25cm"><title>0.07</title></line><line stroke="#00FF00" stroke-width="2" x1="17.5cm" x2="14.0cm" y1="12.25cm" y2="12.25cm"><title>0.20</title></line></g><g class="nodes" fill="red" id="nodes"><circle cx="3.5cm" cy="3.5cm" fill="#8E8E8E" r="0.6cm"><title>3.00</title></circle><circle cx="3.5cm" cy="7.0cm" fill="#8E8E8E" r="0.6cm"><title>4.00</title></circle><circle cx="3.5cm" cy="10.5cm" fill="#8E8E8E" r="0.6cm"><title>5.00</title></circle><circle cx="3.5cm" cy="14.0cm" fill="#8E8E8E" r="0.6cm"><title>6.00</title></circle><circle cx="3.5cm" cy="17.5cm" fill="#8E8E8E" r="0.6cm"><title>7.00</title></circle><circle cx="3.5cm" cy="21.0cm" fill="#8E8E8E" r="0.6cm"><title>8.00</title></circle><circle cx="7.0cm" cy="5.25cm" fill="#FFFFFF" r="0.6cm"><title>25.42</title></circle><circle cx="7.0cm" cy="8.75cm" fill="#1E1E1E" r="0.6cm"><title>0.00</title></circle><circle cx="7.0cm" cy="12.25cm" fill="#1E1E1E" r="0.6cm"><title>0.00</title></circle><circle cx="7.0cm" cy="15.75cm" fill="#E9E9E9" r="0.6cm"><title>23.00</title></circle><circle cx="7.0cm" cy="19.25cm" fill="#1E1E1E" r="0.6cm"><title>0.00</title></circle><circle cx="10.5cm" cy="5.25cm" fill="#232323" r="0.6cm"><title>0.02</title></circle><circle cx="10.5cm" cy="8.75cm" fill="#EDEDED" r="0.6cm"><title>0.92</title></circle><circle cx="10.5cm" cy="12.25cm" fill="#1F1F1F" r="0.6cm"><title>0.01</title></circle><circle cx="10.5cm" cy="15.75cm" fill="#FEFEFE" r="0.6cm"><title>1.00</title></circle><circle cx="10.5cm" cy="19.25cm" fill="#1E1E1E" r="0.6cm"><title>0.00</title></circle><circle cx="14.0cm" cy="12.25cm" fill="#3E3E3E" r="0.6cm"><title>0.15</title></circle><circle cx="17.5cm" cy="12.25cm" fill="#242424" r="0.6cm"><title>0.03</title></circle></g><g class="values" fill="black" id="value"><text fill="#717171" text-anchor="middle" x="3.5cm" y="3.5cm">3.00<title>3.00</title></text><text fill="#717171" text-anchor="middle" x="3.5cm" y="7.0cm">4.00<title>4.00</title></text><text fill="#717171" text-anchor="middle" x="3.5cm" y="10.5cm">5.00<title>5.00</title></text><text fill="#717171" text-anchor="middle" x="3.5cm" y="14.0cm">6.00<title>6.00</title></text><text fill="#717171" text-anchor="middle" x="3.5cm" y="17.5cm">7.00<title>7.00</title></text><text fill="#717171" text-anchor="middle" x="3.5cm" y="21.0cm">8.00<title>8.00</title></text><text fill="#000000" text-anchor="middle" x="7.0cm" y="5.25cm">25.42<title>25.42</title></text><text fill="#e1e1e1" text-anchor="middle" x="7.0cm" y="8.75cm">0.00<title>0.00</title></text><text fill="#e1e1e1" text-anchor="middle" x="7.0cm" y="12.25cm">0.00<title>0.00</title></text><text fill="#161616" text-anchor="middle" x="7.0cm" y="15.75cm">23.00<title>23.00</title></text><text fill="#e1e1e1" text-anchor="middle" x="7.0cm" y="19.25cm">0.00<title>0.00</title></text><text fill="#dcdcdc" text-anchor="middle" x="10.5cm" y="5.25cm">0.02<title>0.02</title></text><text fill="#121212" text-anchor="middle" x="10.5cm" y="8.75cm">0.92<title>0.92</title></text><text fill="#e0e0e0" text-anchor="middle" x="10.5cm" y="12.25cm">0.01<title>0.01</title></text><text fill="#010101" text-anchor="middle" x="10.5cm" y="15.75cm">1.00<title>1.00</title></text><text fill="#e1e1e1" text-anchor="middle" x="10.5cm" y="19.25cm">0.00<title>0.00</title></text><text fill="#c1c1c1" text-anchor="middle" x="14.0cm" y="12.25cm">0.15<title>0.15</title></text><text fill="#dbdbdb" text-anchor="middle" x="17.5cm" y="12.25cm">0.03<title>0.03</title></text></g><animate attributeName="opacity" begin="0s" dur="1s" from="0" to="1" /><animate attributeName="opacity" begin="1s" dur="1s" fill="freeze" from="1" to="1" /><animate attributeName="opacity" begin="2s" dur="1s" from="1" to="0" /></g><g id="outer_group" opacity="0"><g class="connections" stroke="green"><line stroke="#FF0000" stroke-width="2" x1="7.0cm" x2="3.5cm" y1="5.25cm" y2="3.5cm"><title>-0.76</title></line><line stroke="#FF0000" stroke-width="2" x1="7.0cm" x2="3.5cm" y1="5.25cm" y2="7.0cm"><title>-0.76</title></line><line stroke="#FF0000" stroke-width="2" x1="7.0cm" x2="3.5cm" y1="5.25cm" y2="10.5cm"><title>-0.76</title></line><line stroke="#FF0000" stroke-width="2" x1="7.0cm" x2="3.5cm" y1="5.25cm" y2="14.0cm"><title>-0.76</title></line><line stroke="#FF0000" stroke-width="2" x1="7.0cm" x2="3.5cm" y1="5.25cm" y2="17.5cm"><title>-0.76</title></line><line stroke="#FF0000" stroke-width="2" x1="7.0cm" x2="3.5cm" y1="5.25cm" y2="21.0cm"><title>-0.76</title></line><line stroke="#006A00" stroke-width="2" x1="7.0cm" x2="3.5cm" y1="8.75cm" y2="3.5cm"><title>0.09</title></line><line stroke="#006A00" stroke-width="2" x1="7.0cm" x2="3.5cm" y1="8.75cm" y2="7.0cm"><title>0.09</title></line><line stroke="#006A00" stroke-width="2" x1="7.0cm" x2="3.5cm" y1="8.75cm" y2="10.5cm"><title>0.09</title></line><line stroke="#006A00" stroke-width="2" x1="7.0cm" x2="3.5cm" y1="8.75cm" y2="14.0cm"><title>0.09</title></line><line stroke="#006A00" stroke-width="2" x1="7.0cm" x2="3.5cm" y1="8.75cm" y2="17.5cm"><title>0.09</title></line><line stroke="#006A00" stroke-width="2" x1="7.0cm" x2="3.5cm" y1="8.75cm" y2="21.0cm"><title>0.09</title></line><line stroke="#00DE00" stroke-width="2" x1="7.0cm" x2="3.5cm" y1="12.25cm" y2="3.5cm"><title>0.19</title></line><line stroke="#00DE00" stroke-width="2" x1="7.0cm" x2="3.5cm" y1="12.25cm" y2="7.0cm"><title>0.19</title></line><line stroke="#00DE00" stroke-width="2" x1="7.0cm" x2="3.5cm" y1="12.25cm" y2="10.5cm"><title>0.19</title></line><line stroke="#00DE00" stroke-width="2" x1="7.0cm" x2="3.5cm" y1="12.25cm" y2="14.0cm"><title>0.19</title></line><line stroke="#00DE00" stroke-width="2" x1="7.0cm" x2="3.5cm" y1="12.25cm" y2="17.5cm"><title>0.19</title></line><line stroke="#00DE00" stroke-width="2" x1="7.0cm" x2="3.5cm" y1="12.25cm" y2="21.0cm"><title>0.19</title></line><line stroke="#E60000" stroke-width="2" x1="7.0cm" x2="3.5cm" y1="15.75cm" y2="3.5cm"><title>-0.68</title></line><line stroke="#E60000" stroke-width="2" x1="7.0cm" x2="3.5cm" y1="15.75cm" y2="7.0cm"><title>-0.68</title></line><line stroke="#E60000" stroke-width="2" x1="7.0cm" x2="3.5cm" y1="15.75cm" y2="10.5cm"><title>-0.68</title></line><line stroke="#E60000" stroke-width="2" x1="7.0cm" x2="3.5cm" y1="15.75cm" y2="14.0cm"><title>-0.68</title></line><line stroke="#E60000" stroke-width="2" x1="7.0cm" x2="3.5cm" y1="15.75cm" y2="17.5cm"><title>-0.68</title></line><line stroke="#E60000" stroke-width="2" x1="7.0cm" x2="3.5cm" y1="15.75cm" y2="21.0cm"><title>-0.68</title></line><line stroke="#00FF00" stroke-width="2" x1="7.0cm" x2="3.5cm" y1="19.25cm" y2="3.5cm"><title>0.22</title></line><line stroke="#00FF00" stroke-width="2" x1="7.0cm" x2="3.5cm" y1="19.25cm" y2="7.0cm"><title>0.22</title></line><line stroke="#00FF00" stroke-width="2" x1="7.0cm" x2="3.5cm" y1="19.25cm" y2="10.5cm"><title>0.22</title></line><line stroke="#00FF00" stroke-width="2" x1="7.0cm" x2="3.5cm" y1="19.25cm" y2="14.0cm"><title>0.22</title></line><line stroke="#00FF00" stroke-width="2" x1="7.0cm" x2="3.5cm" y1="19.25cm" y2="17.5cm"><title>0.22</title></line><line stroke="#00FF00" stroke-width="2" x1="7.0cm" x2="3.5cm" y1="19.25cm" y2="21.0cm"><title>0.22</title></line><line stroke="#005800" stroke-width="2" x1="10.5cm" x2="7.0cm" y1="5.25cm" y2="5.25cm"><title>0.07</title></line><line stroke="#005800" stroke-width="2" x1="10.5cm" x2="7.0cm" y1="5.25cm" y2="8.75cm"><title>0.07</title></line><line stroke="#005800" stroke-width="2" x1="10.5cm" x2="7.0cm" y1="5.25cm" y2="12.25cm"><title>0.07</title></line><line stroke="#005800" stroke-width="2" x1="10.5cm" x2="7.0cm" y1="5.25cm" y2="15.75cm"><title>0.07</title></line><line stroke="#005800" stroke-width="2" x1="10.5cm" x2="7.0cm" y1="5.25cm" y2="19.25cm"><title>0.07</title></line><line stroke="#510000" stroke-width="2" x1="10.5cm" x2="7.0cm" y1="8.75cm" y2="5.25cm"><title>-0.06</title></line><line stroke="#510000" stroke-width="2" x1="10.5cm" x2="7.0cm" y1="8.75cm" y2="8.75cm"><title>-0.06</title></line><line stroke="#510000" stroke-width="2" x1="10.5cm" x2="7.0cm" y1="8.75cm" y2="12.25cm"><title>-0.06</title></line><line stroke="#510000" stroke-width="2" x1="10.5cm" x2="7.0cm" y1="8.75cm" y2="15.75cm"><title>-0.06</title></line><line stroke="#510000" stroke-width="2" x1="10.5cm" x2="7.0cm" y1="8.75cm" y2="19.25cm"><title>-0.06</title></line><line stroke="#007500" stroke-width="2" x1="10.5cm" x2="7.0cm" y1="12.25cm" y2="5.25cm"><title>0.09</title></line><line stroke="#007500" stroke-width="2" x1="10.5cm" x2="7.0cm" y1="12.25cm" y2="8.75cm"><title>0.09</title></line><line stroke="#007500" stroke-width="2" x1="10.5cm" x2="7.0cm" y1="12.25cm" y2="12.25cm"><title>0.09</title></line><line stroke="#007500" stroke-width="2" x1="10.5cm" x2="7.0cm" y1="12.25cm" y2="15.75cm"><title>0.09</title></line><line stroke="#007500" stroke-width="2" x1="10.5cm" x2="7.0cm" y1="12.25cm" y2="19.25cm"><title>0.09</title></line><line stroke="#FF0000" stroke-width="2" x1="10.5cm" x2="7.0cm" y1="15.75cm" y2="5.25cm"><title>-0.19</title></line><line stroke="#FF0000" stroke-width="2" x1="10.5cm" x2="7.0cm" y1="15.75cm" y2="8.75cm"><title>-0.19</title></line><line stroke="#FF0000" stroke-width="2" x1="10.5cm" x2="7.0cm" y1="15.75cm" y2="12.25cm"><title>-0.19</title></line><line stroke="#FF0000" stroke-width="2" x1="10.5cm" x2="7.0cm" y1="15.75cm" y2="15.75cm"><title>-0.19</title></line><line stroke="#FF0000" stroke-width="2" x1="10.5cm" x2="7.0cm" y1="15.75cm" y2="19.25cm"><title>-0.19</title></line><line stroke="#00FF00" stroke-width="2" x1="10.5cm" x2="7.0cm" y1="19.25cm" y2="5.25cm"><title>0.19</title></line><line stroke="#00FF00" stroke-width="2" x1="10.5cm" x2="7.0cm" y1="19.25cm" y2="8.75cm"><title>0.19</title></line><line stroke="#00FF00" stroke-width="2" x1="10.5cm" x2="7.0cm" y1="19.25cm" y2="12.25cm"><title>0.19</title></line><line stroke="#00FF00" stroke-width="2" x1="10.5cm" x2="7.0cm" y1="19.25cm" y2="15.75cm"><title>0.19</title></line><line stroke="#00FF00" stroke-width="2" x1="10.5cm" x2="7.0cm" y1="19.25cm" y2="19.25cm"><title>0.19</title></line><line stroke="#FF0000" stroke-width="2" x1="14.0cm" x2="10.5cm" y1="12.25cm" y2="5.25cm"><title>-0.07</title></line><line stroke="#FF0000" stroke-width="2" x1="14.0cm" x2="10.5cm" y1="12.25cm" y2="8.75cm"><title>-0.07</title></line><line stroke="#FF0000" stroke-width="2" x1="14.0cm" x2="10.5cm" y1="12.25cm" y2="12.25cm"><title>-0.07</title></line><line stroke="#FF0000" stroke-width="2" x1="14.0cm" x2="10.5cm" y1="12.25cm" y2="15.75cm"><title>-0.07</title></line><line stroke="#FF0000" stroke-width="2" x1="14.0cm" x2="10.5cm" y1="12.25cm" y2="19.25cm"><title>-0.07</title></line><line stroke="#FF0000" stroke-width="2" x1="17.5cm" x2="14.0cm" y1="12.25cm" y2="12.25cm"><title>-0.20</title></line></g><g class="nodes" fill="red" id="nodes"><circle cx="3.5cm" cy="3.5cm" fill="#8E8E8E" r="0.6cm"><title>3.00</title></circle><circle cx="3.5cm" cy="7.0cm" fill="#8E8E8E" r="0.6cm"><title>4.00</title></circle><circle cx="3.5cm" cy="10.5cm" fill="#8E8E8E" r="0.6cm"><title>5.00</title></circle><circle cx="3.5cm" cy="14.0cm" fill="#8E8E8E" r="0.6cm"><title>6.00</title></circle><circle cx="3.5cm" cy="17.5cm" fill="#8E8E8E" r="0.6cm"><title>7.00</title></circle><circle cx="3.5cm" cy="21.0cm" fill="#8E8E8E" r="0.6cm"><title>8.00</title></circle><circle cx="7.0cm" cy="5.25cm" fill="#1E1E1E" r="0.6cm"><title>0.00</title></circle><circle cx="7.0cm" cy="8.75cm" fill="#848484" r="0.6cm"><title>3.53</title></circle><circle cx="7.0cm" cy="12.25cm" fill="#E4E4E4" r="0.6cm"><title>6.83</title></circle><circle cx="7.0cm" cy="15.75cm" fill="#1E1E1E" r="0.6cm"><title>0.00</title></circle><circle cx="7.0cm" cy="19.25cm" fill="#FFFFFF" r="0.6cm"><title>7.75</title></circle><circle cx="10.5cm" cy="5.25cm" fill="#B4B4B4" r="0.6cm"><title>0.67</title></circle><circle cx="10.5cm" cy="8.75cm" fill="#434343" r="0.6cm"><title>0.17</title></circle><circle cx="10.5cm" cy="12.25cm" fill="#C6C6C6" r="0.6cm"><title>0.75</title></circle><circle cx="10.5cm" cy="15.75cm" fill="#222222" r="0.6cm"><title>0.02</title></circle><circle cx="10.5cm" cy="19.25cm" fill="#F3F3F3" r="0.6cm"><title>0.95</title></circle><circle cx="14.0cm" cy="12.25cm" fill="#1E1E1E" r="0.6cm"><title>0.00</title></circle><circle cx="17.5cm" cy="12.25cm" fill="#1E1E1E" r="0.6cm"><title>0.00</title></circle></g><g class="values" fill="black" id="value"><text fill="#717171" text-anchor="middle" x="3.5cm" y="3.5cm">3.00<title>3.00</title></text><text fill="#717171" text-anchor="middle" x="3.5cm" y="7.0cm">4.00<title>4.00</title></text><text fill="#717171" text-anchor="middle" x="3.5cm" y="10.5cm">5.00<title>5.00</title></text><text fill="#717171" text-anchor="middle" x="3.5cm" y="14.0cm">6.00<title>6.00</title></text><text fill="#717171" text-anchor="middle" x="3.5cm" y="17.5cm">7.00<title>7.00</title></text><text fill="#717171" text-anchor="middle" x="3.5cm" y="21.0cm">8.00<title>8.00</title></text><text fill="#e1e1e1" text-anchor="middle" x="7.0cm" y="5.25cm">0.00<title>0.00</title></text><text fill="#7b7b7b" text-anchor="middle" x="7.0cm" y="8.75cm">3.53<title>3.53</title></text><text fill="#1b1b1b" text-anchor="middle" x="7.0cm" y="12.25cm">6.83<title>6.83</title></text><text fill="#e1e1e1" text-anchor="middle" x="7.0cm" y="15.75cm">0.00<title>0.00</title></text><text fill="#000000" text-anchor="middle" x="7.0cm" y="19.25cm">7.75<title>7.75</title></text><text fill="#4b4b4b" text-anchor="middle" x="10.5cm" y="5.25cm">0.67<title>0.67</title></text><text fill="#bcbcbc" text-anchor="middle" x="10.5cm" y="8.75cm">0.17<title>0.17</title></text><text fill="#393939" text-anchor="middle" x="10.5cm" y="12.25cm">0.75<title>0.75</title></text><text fill="#dddddd" text-anchor="middle" x="10.5cm" y="15.75cm">0.02<title>0.02</title></text><text fill="#0c0c0c" text-anchor="middle" x="10.5cm" y="19.25cm">0.95<title>0.95</title></text><text fill="#e1e1e1" text-anchor="middle" x="14.0cm" y="12.25cm">0.00<title>0.00</title></text><text fill="#e1e1e1" text-anchor="middle" x="17.5cm" y="12.25cm">0.00<title>0.00</title></text></g><animate attributeName="opacity" begin="2s" dur="1s" from="0" to="1" /><animate attributeName="opacity" begin="3s" dur="1s" fill="freeze" from="1" to="1" /></g><g id="outer_group" opacity="0"><g class="connections" stroke="green"><line stroke="#00FF00" stroke-width="2" x1="7.0cm" x2="3.5cm" y1="5.25cm" y2="3.5cm"><title>0.76</title></line><line stroke="#00FF00" stroke-width="2" x1="7.0cm" x2="3.5cm" y1="5.25cm" y2="7.0cm"><title>0.76</title></line><line stroke="#00FF00" stroke-width="2" x1="7.0cm" x2="3.5cm" y1="5.25cm" y2="10.5cm"><title>0.76</title></line><line stroke="#00FF00" stroke-width="2" x1="7.0cm" x2="3.5cm" y1="5.25cm" y2="14.0cm"><title>0.76</title></line><line stroke="#00FF00" stroke-width="2" x1="7.0cm" x2="3.5cm" y1="5.25cm" y2="17.5cm"><title>0.76</title></line><line stroke="#00FF00" stroke-width="2" x1="7.0cm" x2="3.5cm" y1="5.25cm" y2="21.0cm"><title>0.76</title></line><line stroke="#6A0000" stroke-width="2" x1="7.0cm" x2="3.5cm" y1="8.75cm" y2="3.5cm"><title>-0.09</title></line><line stroke="#6A0000" stroke-width="2" x1="7.0cm" x2="3.5cm" y1="8.75cm" y2="7.0cm"><title>-0.09</title></line><line stroke="#6A0000" stroke-width="2" x1="7.0cm" x2="3.5cm" y1="8.75cm" y2="10.5cm"><title>-0.09</title></line><line stroke="#6A0000" stroke-width="2" x1="7.0cm" x2="3.5cm" y1="8.75cm" y2="14.0cm"><title>-0.09</title></line><line stroke="#6A0000" stroke-width="2" x1="7.0cm" x2="3.5cm" y1="8.75cm" y2="17.5cm"><title>-0.09</title></line><line stroke="#6A0000" stroke-width="2" x1="7.0cm" x2="3.5cm" y1="8.75cm" y2="21.0cm"><title>-0.09</title></line><line stroke="#DE0000" stroke-width="2" x1="7.0cm" x2="3.5cm" y1="12.25cm" y2="3.5cm"><title>-0.19</title></line><line stroke="#DE0000" stroke-width="2" x1="7.0cm" x2="3.5cm" y1="12.25cm" y2="7.0cm"><title>-0.19</title></line><line stroke="#DE0000" stroke-width="2" x1="7.0cm" x2="3.5cm" y1="12.25cm" y2="10.5cm"><title>-0.19</title></line><line stroke="#DE0000" stroke-width="2" x1="7.0cm" x2="3.5cm" y1="12.25cm" y2="14.0cm"><title>-0.19</title></line><line stroke="#DE0000" stroke-width="2" x1="7.0cm" x2="3.5cm" y1="12.25cm" y2="17.5cm"><title>-0.19</title></line><line stroke="#DE0000" stroke-width="2" x1="7.0cm" x2="3.5cm" y1="12.25cm" y2="21.0cm"><title>-0.19</title></line><line stroke="#00E600" stroke-width="2" x1="7.0cm" x2="3.5cm" y1="15.75cm" y2="3.5cm"><title>0.68</title></line><line stroke="#00E600" stroke-width="2" x1="7.0cm" x2="3.5cm" y1="15.75cm" y2="7.0cm"><title>0.68</title></line><line stroke="#00E600" stroke-width="2" x1="7.0cm" x2="3.5cm" y1="15.75cm" y2="10.5cm"><title>0.68</title></line><line stroke="#00E600" stroke-width="2" x1="7.0cm" x2="3.5cm" y1="15.75cm" y2="14.0cm"><title>0.68</title></line><line stroke="#00E600" stroke-width="2" x1="7.0cm" x2="3.5cm" y1="15.75cm" y2="17.5cm"><title>0.68</title></line><line stroke="#00E600" stroke-width="2" x1="7.0cm" x2="3.5cm" y1="15.75cm" y2="21.0cm"><title>0.68</title></line><line stroke="#FF0000" stroke-width="2" x1="7.0cm" x2="3.5cm" y1="19.25cm" y2="3.5cm"><title>-0.22</title></line><line stroke="#FF0000" stroke-width="2" x1="7.0cm" x2="3.5cm" y1="19.25cm" y2="7.0cm"><title>-0.22</title></line><line stroke="#FF0000" stroke-width="2" x1="7.0cm" x2="3.5cm" y1="19.25cm" y2="10.5cm"><title>-0.22</title></line><line stroke="#FF0000" stroke-width="2" x1="7.0cm" x2="3.5cm" y1="19.25cm" y2="14.0cm"><title>-0.22</title></line><line stroke="#FF0000" stroke-width="2" x1="7.0cm" x2="3.5cm" y1="19.25cm" y2="17.5cm"><title>-0.22</title></line><line stroke="#FF0000" stroke-width="2" x1="7.0cm" x2="3.5cm" y1="19.25cm" y2="21.0cm"><title>-0.22</title></line><line stroke="#580000" stroke-width="2" x1="10.5cm" x2="7.0cm" y1="5.25cm" y2="5.25cm"><title>-0.07</title></line><line stroke="#580000" stroke-width="2" x1="10.5cm" x2="7.0cm" y1="5.25cm" y2="8.75cm"><title>-0.07</title></line><line stroke="#580000" stroke-width="2" x1="10.5cm" x2="7.0cm" y1="5.25cm" y2="12.25cm"><title>-0.07</title></line><line stroke="#580000" stroke-width="2" x1="10.5cm" x2="7.0cm" y1="5.25cm" y2="15.75cm"><title>-0.07</title></line><line stroke="#580000" stroke-width="2" x1="10.5cm" x2="7.0cm" y1="5.25cm" y2="19.25cm"><title>-0.07</title></line><line stroke="#005100" stroke-width="2" x1="10.5cm" x2="7.0cm" y1="8.75cm" y2="5.25cm"><title>0.06</title></line><line stroke="#005100" stroke-width="2" x1="10.5cm" x2="7.0cm" y1="8.75cm" y2="8.75cm"><title>0.06</title></line><line stroke="#005100" stroke-width="2" x1="10.5cm" x2="7.0cm" y1="8.75cm" y2="12.25cm"><title>0.06</title></line><line stroke="#005100" stroke-width="2" x1="10.5cm" x2="7.0cm" y1="8.75cm" y2="15.75cm"><title>0.06</title></line><line stroke="#005100" stroke-width="2" x1="10.5cm" x2="7.0cm" y1="8.75cm" y2="19.25cm"><title>0.06</title></line><line stroke="#750000" stroke-width="2" x1="10.5cm" x2="7.0cm" y1="12.25cm" y2="5.25cm"><title>-0.09</title></line><line stroke="#750000" stroke-width="2" x1="10.5cm" x2="7.0cm" y1="12.25cm" y2="8.75cm"><title>-0.09</title></line><line stroke="#750000" stroke-width="2" x1="10.5cm" x2="7.0cm" y1="12.25cm" y2="12.25cm"><title>-0.09</title></line><line stroke="#750000" stroke-width="2" x1="10.5cm" x2="7.0cm" y1="12.25cm" y2="15.75cm"><title>-0.09</title></line><line stroke="#750000" stroke-width="2" x1="10.5cm" x2="7.0cm" y1="12.25cm" y2="19.25cm"><title>-0.09</title></line><line stroke="#00FF00" stroke-width="2" x1="10.5cm" x2="7.0cm" y1="15.75cm" y2="5.25cm"><title>0.19</title></line><line stroke="#00FF00" stroke-width="2" x1="10.5cm" x2="7.0cm" y1="15.75cm" y2="8.75cm"><title>0.19</title></line><line stroke="#00FF00" stroke-width="2" x1="10.5cm" x2="7.0cm" y1="15.75cm" y2="12.25cm"><title>0.19</title></line><line stroke="#00FF00" stroke-width="2" x1="10.5cm" x2="7.0cm" y1="15.75cm" y2="15.75cm"><title>0.19</title></line><line stroke="#00FF00" stroke-width="2" x1="10.5cm" x2="7.0cm" y1="15.75cm" y2="19.25cm"><title>0.19</title></line><line stroke="#FF0000" stroke-width="2" x1="10.5cm" x2="7.0cm" y1="19.25cm" y2="5.25cm"><title>-0.19</title></line><line stroke="#FF0000" stroke-width="2" x1="10.5cm" x2="7.0cm" y1="19.25cm" y2="8.75cm"><title>-0.19</title></line><line stroke="#FF0000" stroke-width="2" x1="10.5cm" x2="7.0cm" y1="19.25cm" y2="12.25cm"><title>-0.19</title></line><line stroke="#FF0000" stroke-width="2" x1="10.5cm" x2="7.0cm" y1="19.25cm" y2="15.75cm"><title>-0.19</title></line><line stroke="#FF0000" stroke-width="2" x1="10.5cm" x2="7.0cm" y1="19.25cm" y2="19.25cm"><title>-0.19</title></line><line stroke="#00FF00" stroke-width="2" x1="14.0cm" x2="10.5cm" y1="12.25cm" y2="5.25cm"><title>0.07</title></line><line stroke="#00FF00" stroke-width="2" x1="14.0cm" x2="10.5cm" y1="12.25cm" y2="8.75cm"><title>0.07</title></line><line stroke="#00FF00" stroke-width="2" x1="14.0cm" x2="10.5cm" y1="12.25cm" y2="12.25cm"><title>0.07</title></line><line stroke="#00FF00" stroke-width="2" x1="14.0cm" x2="10.5cm" y1="12.25cm" y2="15.75cm"><title>0.07</title></line><line stroke="#00FF00" stroke-width="2" x1="14.0cm" x2="10.5cm" y1="12.25cm" y2="19.25cm"><title>0.07</title></line><line stroke="#00FF00" stroke-width="2" x1="17.5cm" x2="14.0cm" y1="12.25cm" y2="12.25cm"><title>0.20</title></line></g><g class="nodes" fill="red" id="nodes"><circle cx="3.5cm" cy="3.5cm" fill="#8E8E8E" r="0.6cm"><title>3.00</title></circle><circle cx="3.5cm" cy="7.0cm" fill="#8E8E8E" r="0.6cm"><title>4.00</title></circle><circle cx="3.5cm" cy="10.5cm" fill="#8E8E8E" r="0.6cm"><title>5.00</title></circle><circle cx="3.5cm" cy="14.0cm" fill="#8E8E8E" r="0.6cm"><title>6.00</title></circle><circle cx="3.5cm" cy="17.5cm" fill="#8E8E8E" r="0.6cm"><title>7.00</title></circle><circle cx="3.5cm" cy="21.0cm" fill="#8E8E8E" r="0.6cm"><title>8.00</title></circle><circle cx="7.0cm" cy="5.25cm" fill="#FFFFFF" r="0.6cm"><title>25.42</title></circle><circle cx="7.0cm" cy="8.75cm" fill="#1E1E1E" r="0.6cm"><title>0.00</title></circle><circle cx="7.0cm" cy="12.25cm" fill="#1E1E1E" r="0.6cm"><title>0.00</title></circle><circle cx="7.0cm" cy="15.75cm" fill="#E9E9E9" r="0.6cm"><title>23.00</title></circle><circle cx="7.0cm" cy="19.25cm" fill="#1E1E1E" r="0.6cm"><title>0.00</title></circle><circle cx="10.5cm" cy="5.25cm" fill="#232323" r="0.6cm"><title>0.02</title></circle><circle cx="10.5cm" cy="8.75cm" fill="#EDEDED" r="0.6cm"><title>0.92</title></circle><circle cx="10.5cm" cy="12.25cm" fill="#1F1F1F" r="0.6cm"><title>0.01</title></circle><circle cx="10.5cm" cy="15.75cm" fill="#FEFEFE" r="0.6cm"><title>1.00</title></circle><circle cx="10.5cm" cy="19.25cm" fill="#1E1E1E" r="0.6cm"><title>0.00</title></circle><circle cx="14.0cm" cy="12.25cm" fill="#3E3E3E" r="0.6cm"><title>0.15</title></circle><circle cx="17.5cm" cy="12.25cm" fill="#242424" r="0.6cm"><title>0.03</title></circle></g><g class="values" fill="black" id="value"><text fill="#717171" text-anchor="middle" x="3.5cm" y="3.5cm">3.00<title>3.00</title></text><text fill="#717171" text-anchor="middle" x="3.5cm" y="7.0cm">4.00<title>4.00</title></text><text fill="#717171" text-anchor="middle" x="3.5cm" y="10.5cm">5.00<title>5.00</title></text><text fill="#717171" text-anchor="middle" x="3.5cm" y="14.0cm">6.00<title>6.00</title></text><text fill="#717171" text-anchor="middle" x="3.5cm" y="17.5cm">7.00<title>7.00</title></text><text fill="#717171" text-anchor="middle" x="3.5cm" y="21.0cm">8.00<title>8.00</title></text><text fill="#000000" text-anchor="middle" x="7.0cm" y="5.25cm">25.42<title>25.42</title></text><text fill="#e1e1e1" text-anchor="middle" x="7.0cm" y="8.75cm">0.00<title>0.00</title></text><text fill="#e1e1e1" text-anchor="middle" x="7.0cm" y="12.25cm">0.00<title>0.00</title></text><text fill="#161616" text-anchor="middle" x="7.0cm" y="15.75cm">23.00<title>23.00</title></text><text fill="#e1e1e1" text-anchor="middle" x="7.0cm" y="19.25cm">0.00<title>0.00</title></text><text fill="#dcdcdc" text-anchor="middle" x="10.5cm" y="5.25cm">0.02<title>0.02</title></text><text fill="#121212" text-anchor="middle" x="10.5cm" y="8.75cm">0.92<title>0.92</title></text><text fill="#e0e0e0" text-anchor="middle" x="10.5cm" y="12.25cm">0.01<title>0.01</title></text><text fill="#010101" text-anchor="middle" x="10.5cm" y="15.75cm">1.00<title>1.00</title></text><text fill="#e1e1e1" text-anchor="middle" x="10.5cm" y="19.25cm">0.00<title>0.00</title></text><text fill="#c1c1c1" text-anchor="middle" x="14.0cm" y="12.25cm">0.15<title>0.15</title></text><text fill="#dbdbdb" text-anchor="middle" x="17.5cm" y="12.25cm">0.03<title>0.03</title></text></g><animate attributeName="opacity" begin="0s" dur="1s" from="0" to="1" /><animate attributeName="opacity" begin="1s" dur="1s" fill="freeze" from="1" to="1" /><animate attributeName="opacity" begin="2s" dur="1s" from="1" to="0" /></g><g id="outer_group" opacity="0"><g class="connections" stroke="green"><line stroke="#FF0000" stroke-width="2" x1="7.0cm" x2="3.5cm" y1="5.25cm" y2="3.5cm"><title>-0.76</title></line><line stroke="#FF0000" stroke-width="2" x1="7.0cm" x2="3.5cm" y1="5.25cm" y2="7.0cm"><title>-0.76</title></line><line stroke="#FF0000" stroke-width="2" x1="7.0cm" x2="3.5cm" y1="5.25cm" y2="10.5cm"><title>-0.76</title></line><line stroke="#FF0000" stroke-width="2" x1="7.0cm" x2="3.5cm" y1="5.25cm" y2="14.0cm"><title>-0.76</title></line><line stroke="#FF0000" stroke-width="2" x1="7.0cm" x2="3.5cm" y1="5.25cm" y2="17.5cm"><title>-0.76</title></line><line stroke="#FF0000" stroke-width="2" x1="7.0cm" x2="3.5cm" y1="5.25cm" y2="21.0cm"><title>-0.76</title></line><line stroke="#006A00" stroke-width="2" x1="7.0cm" x2="3.5cm" y1="8.75cm" y2="3.5cm"><title>0.09</title></line><line stroke="#006A00" stroke-width="2" x1="7.0cm" x2="3.5cm" y1="8.75cm" y2="7.0cm"><title>0.09</title></line><line stroke="#006A00" stroke-width="2" x1="7.0cm" x2="3.5cm" y1="8.75cm" y2="10.5cm"><title>0.09</title></line><line stroke="#006A00" stroke-width="2" x1="7.0cm" x2="3.5cm" y1="8.75cm" y2="14.0cm"><title>0.09</title></line><line stroke="#006A00" stroke-width="2" x1="7.0cm" x2="3.5cm" y1="8.75cm" y2="17.5cm"><title>0.09</title></line><line stroke="#006A00" stroke-width="2" x1="7.0cm" x2="3.5cm" y1="8.75cm" y2="21.0cm"><title>0.09</title></line><line stroke="#00DE00" stroke-width="2" x1="7.0cm" x2="3.5cm" y1="12.25cm" y2="3.5cm"><title>0.19</title></line><line stroke="#00DE00" stroke-width="2" x1="7.0cm" x2="3.5cm" y1="12.25cm" y2="7.0cm"><title>0.19</title></line><line stroke="#00DE00" stroke-width="2" x1="7.0cm" x2="3.5cm" y1="12.25cm" y2="10.5cm"><title>0.19</title></line><line stroke="#00DE00" stroke-width="2" x1="7.0cm" x2="3.5cm" y1="12.25cm" y2="14.0cm"><title>0.19</title></line><line stroke="#00DE00" stroke-width="2" x1="7.0cm" x2="3.5cm" y1="12.25cm" y2="17.5cm"><title>0.19</title></line><line stroke="#00DE00" stroke-width="2" x1="7.0cm" x2="3.5cm" y1="12.25cm" y2="21.0cm"><title>0.19</title></line><line stroke="#E60000" stroke-width="2" x1="7.0cm" x2="3.5cm" y1="15.75cm" y2="3.5cm"><title>-0.68</title></line><line stroke="#E60000" stroke-width="2" x1="7.0cm" x2="3.5cm" y1="15.75cm" y2="7.0cm"><title>-0.68</title></line><line stroke="#E60000" stroke-width="2" x1="7.0cm" x2="3.5cm" y1="15.75cm" y2="10.5cm"><title>-0.68</title></line><line stroke="#E60000" stroke-width="2" x1="7.0cm" x2="3.5cm" y1="15.75cm" y2="14.0cm"><title>-0.68</title></line><line stroke="#E60000" stroke-width="2" x1="7.0cm" x2="3.5cm" y1="15.75cm" y2="17.5cm"><title>-0.68</title></line><line stroke="#E60000" stroke-width="2" x1="7.0cm" x2="3.5cm" y1="15.75cm" y2="21.0cm"><title>-0.68</title></line><line stroke="#00FF00" stroke-width="2" x1="7.0cm" x2="3.5cm" y1="19.25cm" y2="3.5cm"><title>0.22</title></line><line stroke="#00FF00" stroke-width="2" x1="7.0cm" x2="3.5cm" y1="19.25cm" y2="7.0cm"><title>0.22</title></line><line stroke="#00FF00" stroke-width="2" x1="7.0cm" x2="3.5cm" y1="19.25cm" y2="10.5cm"><title>0.22</title></line><line stroke="#00FF00" stroke-width="2" x1="7.0cm" x2="3.5cm" y1="19.25cm" y2="14.0cm"><title>0.22</title></line><line stroke="#00FF00" stroke-width="2" x1="7.0cm" x2="3.5cm" y1="19.25cm" y2="17.5cm"><title>0.22</title></line><line stroke="#00FF00" stroke-width="2" x1="7.0cm" x2="3.5cm" y1="19.25cm" y2="21.0cm"><title>0.22</title></line><line stroke="#005800" stroke-width="2" x1="10.5cm" x2="7.0cm" y1="5.25cm" y2="5.25cm"><title>0.07</title></line><line stroke="#005800" stroke-width="2" x1="10.5cm" x2="7.0cm" y1="5.25cm" y2="8.75cm"><title>0.07</title></line><line stroke="#005800" stroke-width="2" x1="10.5cm" x2="7.0cm" y1="5.25cm" y2="12.25cm"><title>0.07</title></line><line stroke="#005800" stroke-width="2" x1="10.5cm" x2="7.0cm" y1="5.25cm" y2="15.75cm"><title>0.07</title></line><line stroke="#005800" stroke-width="2" x1="10.5cm" x2="7.0cm" y1="5.25cm" y2="19.25cm"><title>0.07</title></line><line stroke="#510000" stroke-width="2" x1="10.5cm" x2="7.0cm" y1="8.75cm" y2="5.25cm"><title>-0.06</title></line><line stroke="#510000" stroke-width="2" x1="10.5cm" x2="7.0cm" y1="8.75cm" y2="8.75cm"><title>-0.06</title></line><line stroke="#510000" stroke-width="2" x1="10.5cm" x2="7.0cm" y1="8.75cm" y2="12.25cm"><title>-0.06</title></line><line stroke="#510000" stroke-width="2" x1="10.5cm" x2="7.0cm" y1="8.75cm" y2="15.75cm"><title>-0.06</title></line><line stroke="#510000" stroke-width="2" x1="10.5cm" x2="7.0cm" y1="8.75cm" y2="19.25cm"><title>-0.06</title></line><line stroke="#007500" stroke-width="2" x1="10.5cm" x2="7.0cm" y1="12.25cm" y2="5.25cm"><title>0.09</title></line><line stroke="#007500" stroke-width="2" x1="10.5cm" x2="7.0cm" y1="12.25cm" y2="8.75cm"><title>0.09</title></line><line stroke="#007500" stroke-width="2" x1="10.5cm" x2="7.0cm" y1="12.25cm" y2="12.25cm"><title>0.09</title></line><line stroke="#007500" stroke-width="2" x1="10.5cm" x2="7.0cm" y1="12.25cm" y2="15.75cm"><title>0.09</title></line><line stroke="#007500" stroke-width="2" x1="10.5cm" x2="7.0cm" y1="12.25cm" y2="19.25cm"><title>0.09</title></line><line stroke="#FF0000" stroke-width="2" x1="10.5cm" x2="7.0cm" y1="15.75cm" y2="5.25cm"><title>-0.19</title></line><line stroke="#FF0000" stroke-width="2" x1="10.5cm" x2="7.0cm" y1="15.75cm" y2="8.75cm"><title>-0.19</title></line><line stroke="#FF0000" stroke-width="2" x1="10.5cm" x2="7.0cm" y1="15.75cm" y2="12.25cm"><title>-0.19</title></line><line stroke="#FF0000" stroke-width="2" x1="10.5cm" x2="7.0cm" y1="15.75cm" y2="15.75cm"><title>-0.19</title></line><line stroke="#FF0000" stroke-width="2" x1="10.5cm" x2="7.0cm" y1="15.75cm" y2="19.25cm"><title>-0.19</title></line><line stroke="#00FF00" stroke-width="2" x1="10.5cm" x2="7.0cm" y1="19.25cm" y2="5.25cm"><title>0.19</title></line><line stroke="#00FF00" stroke-width="2" x1="10.5cm" x2="7.0cm" y1="19.25cm" y2="8.75cm"><title>0.19</title></line><line stroke="#00FF00" stroke-width="2" x1="10.5cm" x2="7.0cm" y1="19.25cm" y2="12.25cm"><title>0.19</title></line><line stroke="#00FF00" stroke-width="2" x1="10.5cm" x2="7.0cm" y1="19.25cm" y2="15.75cm"><title>0.19</title></line><line stroke="#00FF00" stroke-width="2" x1="10.5cm" x2="7.0cm" y1="19.25cm" y2="19.25cm"><title>0.19</title></line><line stroke="#FF0000" stroke-width="2" x1="14.0cm" x2="10.5cm" y1="12.25cm" y2="5.25cm"><title>-0.07</title></line><line stroke="#FF0000" stroke-width="2" x1="14.0cm" x2="10.5cm" y1="12.25cm" y2="8.75cm"><title>-0.07</title></line><line stroke="#FF0000" stroke-width="2" x1="14.0cm" x2="10.5cm" y1="12.25cm" y2="12.25cm"><title>-0.07</title></line><line stroke="#FF0000" stroke-width="2" x1="14.0cm" x2="10.5cm" y1="12.25cm" y2="15.75cm"><title>-0.07</title></line><line stroke="#FF0000" stroke-width="2" x1="14.0cm" x2="10.5cm" y1="12.25cm" y2="19.25cm"><title>-0.07</title></line><line stroke="#FF0000" stroke-width="2" x1="17.5cm" x2="14.0cm" y1="12.25cm" y2="12.25cm"><title>-0.20</title></line></g><g class="nodes" fill="red" id="nodes"><circle cx="3.5cm" cy="3.5cm" fill="#8E8E8E" r="0.6cm"><title>3.00</title></circle><circle cx="3.5cm" cy="7.0cm" fill="#8E8E8E" r="0.6cm"><title>4.00</title></circle><circle cx="3.5cm" cy="10.5cm" fill="#8E8E8E" r="0.6cm"><title>5.00</title></circle><circle cx="3.5cm" cy="14.0cm" fill="#8E8E8E" r="0.6cm"><title>6.00</title></circle><circle cx="3.5cm" cy="17.5cm" fill="#8E8E8E" r="0.6cm"><title>7.00</title></circle><circle cx="3.5cm" cy="21.0cm" fill="#8E8E8E" r="0.6cm"><title>8.00</title></circle><circle cx="7.0cm" cy="5.25cm" fill="#1E1E1E" r="0.6cm"><title>0.00</title></circle><circle cx="7.0cm" cy="8.75cm" fill="#848484" r="0.6cm"><title>3.53</title></circle><circle cx="7.0cm" cy="12.25cm" fill="#E4E4E4" r="0.6cm"><title>6.83</title></circle><circle cx="7.0cm" cy="15.75cm" fill="#1E1E1E" r="0.6cm"><title>0.00</title></circle><circle cx="7.0cm" cy="19.25cm" fill="#FFFFFF" r="0.6cm"><title>7.75</title></circle><circle cx="10.5cm" cy="5.25cm" fill="#B4B4B4" r="0.6cm"><title>0.67</title></circle><circle cx="10.5cm" cy="8.75cm" fill="#434343" r="0.6cm"><title>0.17</title></circle><circle cx="10.5cm" cy="12.25cm" fill="#C6C6C6" r="0.6cm"><title>0.75</title></circle><circle cx="10.5cm" cy="15.75cm" fill="#222222" r="0.6cm"><title>0.02</title></circle><circle cx="10.5cm" cy="19.25cm" fill="#F3F3F3" r="0.6cm"><title>0.95</title></circle><circle cx="14.0cm" cy="12.25cm" fill="#1E1E1E" r="0.6cm"><title>0.00</title></circle><circle cx="17.5cm" cy="12.25cm" fill="#1E1E1E" r="0.6cm"><title>0.00</title></circle></g><g class="values" fill="black" id="value"><text fill="#717171" text-anchor="middle" x="3.5cm" y="3.5cm">3.00<title>3.00</title></text><text fill="#717171" text-anchor="middle" x="3.5cm" y="7.0cm">4.00<title>4.00</title></text><text fill="#717171" text-anchor="middle" x="3.5cm" y="10.5cm">5.00<title>5.00</title></text><text fill="#717171" text-anchor="middle" x="3.5cm" y="14.0cm">6.00<title>6.00</title></text><text fill="#717171" text-anchor="middle" x="3.5cm" y="17.5cm">7.00<title>7.00</title></text><text fill="#717171" text-anchor="middle" x="3.5cm" y="21.0cm">8.00<title>8.00</title></text><text fill="#e1e1e1" text-anchor="middle" x="7.0cm" y="5.25cm">0.00<title>0.00</title></text><text fill="#7b7b7b" text-anchor="middle" x="7.0cm" y="8.75cm">3.53<title>3.53</title></text><text fill="#1b1b1b" text-anchor="middle" x="7.0cm" y="12.25cm">6.83<title>6.83</title></text><text fill="#e1e1e1" text-anchor="middle" x="7.0cm" y="15.75cm">0.00<title>0.00</title></text><text fill="#000000" text-anchor="middle" x="7.0cm" y="19.25cm">7.75<title>7.75</title></text><text fill="#4b4b4b" text-anchor="middle" x="10.5cm" y="5.25cm">0.67<title>0.67</title></text><text fill="#bcbcbc" text-anchor="middle" x="10.5cm" y="8.75cm">0.17<title>0.17</title></text><text fill="#393939" text-anchor="middle" x="10.5cm" y="12.25cm">0.75<title>0.75</title></text><text fill="#dddddd" text-anchor="middle" x="10.5cm" y="15.75cm">0.02<title>0.02</title></text><text fill="#0c0c0c" text-anchor="middle" x="10.5cm" y="19.25cm">0.95<title>0.95</title></text><text fill="#e1e1e1" text-anchor="middle" x="14.0cm" y="12.25cm">0.00<title>0.00</title></text><text fill="#e1e1e1" text-anchor="middle" x="17.5cm" y="12.25cm">0.00<title>0.00</title></text></g><animate attributeName="opacity" begin="2s" dur="1s" from="0" to="1" /><animate attributeName="opacity" begin="3s" dur="1s" fill="freeze" from="1" to="1" /></g></svg>