<?xml version="1.0" encoding="utf-8" ?>
<svg baseProfile="full" height="100%" version="1.1" width="100%" xmlns="http://www.w3.org/2000/svg" xmlns:ev="http://www.w3.org/2001/xml-events" xmlns:xlink="http://www.w3.org/1999/xlink"><defs /><style type="text/css"><![CDATA[
    circle:hover {
        stroke: black;
        stroke-width: 2;
		fill: lightgreen 
    }
]]></style><style type="text/css"><![CDATA[
    line:hover {
        stroke: black;
        stroke-width: 4;
    }
]]></style><g id="connections" stroke="green"><line stroke="#FF0000" stroke-width="2" x1="7.0cm" x2="3.5cm" y1="5.25cm" y2="3.5cm"><title>-0.24</title></line><line stroke="#FF0000" stroke-width="2" x1="7.0cm" x2="3.5cm" y1="5.25cm" y2="7.0cm"><title>-0.24</title></line><line stroke="#FF0000" stroke-width="2" x1="7.0cm" x2="3.5cm" y1="5.25cm" y2="10.5cm"><title>-0.24</title></line><line stroke="#FF0000" stroke-width="2" x1="7.0cm" x2="3.5cm" y1="5.25cm" y2="14.0cm"><title>-0.24</title></line><line stroke="#FF0000" stroke-width="2" x1="7.0cm" x2="3.5cm" y1="5.25cm" y2="17.5cm"><title>-0.24</title></line><line stroke="#007300" stroke-width="2" x1="7.0cm" x2="3.5cm" y1="8.75cm" y2="3.5cm"><title>0.35</title></line><line stroke="#007300" stroke-width="2" x1="7.0cm" x2="3.5cm" y1="8.75cm" y2="7.0cm"><title>0.35</title></line><line stroke="#007300" stroke-width="2" x1="7.0cm" x2="3.5cm" y1="8.75cm" y2="10.5cm"><title>0.35</title></line><line stroke="#007300" stroke-width="2" x1="7.0cm" x2="3.5cm" y1="8.75cm" y2="14.0cm"><title>0.35</title></line><line stroke="#007300" stroke-width="2" x1="7.0cm" x2="3.5cm" y1="8.75cm" y2="17.5cm"><title>0.35</title></line><line stroke="#006600" stroke-width="2" x1="7.0cm" x2="3.5cm" y1="12.25cm" y2="3.5cm"><title>0.31</title></line><line stroke="#006600" stroke-width="2" x1="7.0cm" x2="3.5cm" y1="12.25cm" y2="7.0cm"><title>0.31</title></line><line stroke="#006600" stroke-width="2" x1="7.0cm" x2="3.5cm" y1="12.25cm" y2="10.5cm"><title>0.31</title></line><line stroke="#006600" stroke-width="2" x1="7.0cm" x2="3.5cm" y1="12.25cm" y2="14.0cm"><title>0.31</title></line><line stroke="#006600" stroke-width="2" x1="7.0cm" x2="3.5cm" y1="12.25cm" y2="17.5cm"><title>0.31</title></line><line stroke="#00FF00" stroke-width="2" x1="7.0cm" x2="3.5cm" y1="15.75cm" y2="3.5cm"><title>0.76</title></line><line stroke="#00FF00" stroke-width="2" x1="7.0cm" x2="3.5cm" y1="15.75cm" y2="7.0cm"><title>0.76</title></line><line stroke="#00FF00" stroke-width="2" x1="7.0cm" x2="3.5cm" y1="15.75cm" y2="10.5cm"><title>0.76</title></line><line stroke="#00FF00" stroke-width="2" x1="7.0cm" x2="3.5cm" y1="15.75cm" y2="14.0cm"><title>0.76</title></line><line stroke="#00FF00" stroke-width="2" x1="7.0cm" x2="3.5cm" y1="15.75cm" y2="17.5cm"><title>0.76</title></line><line stroke="#E20000" stroke-width="2" x1="10.5cm" x2="7.0cm" y1="5.25cm" y2="5.25cm"><title>-0.80</title></line><line stroke="#E20000" stroke-width="2" x1="10.5cm" x2="7.0cm" y1="5.25cm" y2="8.75cm"><title>-0.80</title></line><line stroke="#E20000" stroke-width="2" x1="10.5cm" x2="7.0cm" y1="5.25cm" y2="12.25cm"><title>-0.80</title></line><line stroke="#E20000" stroke-width="2" x1="10.5cm" x2="7.0cm" y1="5.25cm" y2="15.75cm"><title>-0.80</title></line><line stroke="#FF0000" stroke-width="2" x1="10.5cm" x2="7.0cm" y1="8.75cm" y2="5.25cm"><title>-0.90</title></line><line stroke="#FF0000" stroke-width="2" x1="10.5cm" x2="7.0cm" y1="8.75cm" y2="8.75cm"><title>-0.90</title></line><line stroke="#FF0000" stroke-width="2" x1="10.5cm" x2="7.0cm" y1="8.75cm" y2="12.25cm"><title>-0.90</title></line><line stroke="#FF0000" stroke-width="2" x1="10.5cm" x2="7.0cm" y1="8.75cm" y2="15.75cm"><title>-0.90</title></line><line stroke="#00FF00" stroke-width="2" x1="10.5cm" x2="7.0cm" y1="12.25cm" y2="5.25cm"><title>0.91</title></line><line stroke="#00FF00" stroke-width="2" x1="10.5cm" x2="7.0cm" y1="12.25cm" y2="8.75cm"><title>0.91</title></line><line stroke="#00FF00" stroke-width="2" x1="10.5cm" x2="7.0cm" y1="12.25cm" y2="12.25cm"><title>0.91</title></line><line stroke="#00FF00" stroke-width="2" x1="10.5cm" x2="7.0cm" y1="12.25cm" y2="15.75cm"><title>0.91</title></line><line stroke="#8D0000" stroke-width="2" x1="10.5cm" x2="7.0cm" y1="15.75cm" y2="5.25cm"><title>-0.50</title></line><line stroke="#8D0000" stroke-width="2" x1="10.5cm" x2="7.0cm" y1="15.75cm" y2="8.75cm"><title>-0.50</title></line><line stroke="#8D0000" stroke-width="2" x1="10.5cm" x2="7.0cm" y1="15.75cm" y2="12.25cm"><title>-0.50</title></line><line stroke="#8D0000" stroke-width="2" x1="10.5cm" x2="7.0cm" y1="15.75cm" y2="15.75cm"><title>-0.50</title></line><line stroke="#00FF00" stroke-width="2" x1="14.0cm" x2="10.5cm" y1="10.5cm" y2="5.25cm"><title>0.08</title></line><line stroke="#00FF00" stroke-width="2" x1="14.0cm" x2="10.5cm" y1="10.5cm" y2="8.75cm"><title>0.08</title></line><line stroke="#00FF00" stroke-width="2" x1="14.0cm" x2="10.5cm" y1="10.5cm" y2="12.25cm"><title>0.08</title></line><line stroke="#00FF00" stroke-width="2" x1="14.0cm" x2="10.5cm" y1="10.5cm" y2="15.75cm"><title>0.08</title></line><line stroke="#FF0000" stroke-width="2" x1="17.5cm" x2="14.0cm" y1="10.5cm" y2="10.5cm"><title>-0.25</title></line></g><g fill="red" id="nodes"><circle cx="3.5cm" cy="3.5cm" fill="#8E8E8E" r="0.6cm"><title>9.00</title></circle><circle cx="3.5cm" cy="7.0cm" fill="#8E8E8E" r="0.6cm"><title>10.00</title></circle><circle cx="3.5cm" cy="10.5cm" fill="#8E8E8E" r="0.6cm"><title>11.00</title></circle><circle cx="3.5cm" cy="14.0cm" fill="#8E8E8E" r="0.6cm"><title>12.00</title></circle><circle cx="3.5cm" cy="17.5cm" fill="#8E8E8E" r="0.6cm"><title>13.00</title></circle><circle cx="7.0cm" cy="5.25cm" fill="#1E1E1E" r="0.6cm"><title>0.00</title></circle><circle cx="7.0cm" cy="8.75cm" fill="#858585" r="0.6cm"><title>19.56</title></circle><circle cx="7.0cm" cy="12.25cm" fill="#7A7A7A" r="0.6cm"><title>17.36</title></circle><circle cx="7.0cm" cy="15.75cm" fill="#FFFFFF" r="0.6cm"><title>42.39</title></circle><circle cx="10.5cm" cy="5.25cm" fill="#1E1E1E" r="0.6cm"><title>0.00</title></circle><circle cx="10.5cm" cy="8.75cm" fill="#1E1E1E" r="0.6cm"><title>0.00</title></circle><circle cx="10.5cm" cy="12.25cm" fill="#FFFFFF" r="0.6cm"><title>1.00</title></circle><circle cx="10.5cm" cy="15.75cm" fill="#1E1E1E" r="0.6cm"><title>0.00</title></circle><circle cx="14.0cm" cy="10.5cm" fill="#303030" r="0.6cm"><title>0.08</title></circle><circle cx="17.5cm" cy="10.5cm" fill="#1E1E1E" r="0.6cm"><title>0.00</title></circle></g><g fill="black" id="value"><text text-anchor="middle" x="3.5cm" y="3.5cm">9.00<title>9.00</title></text><text text-anchor="middle" x="3.5cm" y="7.0cm">10.00<title>10.00</title></text><text text-anchor="middle" x="3.5cm" y="10.5cm">11.00<title>11.00</title></text><text text-anchor="middle" x="3.5cm" y="14.0cm">12.00<title>12.00</title></text><text text-anchor="middle" x="3.5cm" y="17.5cm">13.00<title>13.00</title></text><text text-anchor="middle" x="7.0cm" y="5.25cm">0.00<title>0.00</title></text><text text-anchor="middle" x="7.0cm" y="8.75cm">19.56<title>19.56</title></text><text text-anchor="middle" x="7.0cm" y="12.25cm">17.36<title>17.36</title></text><text text-anchor="middle" x="7.0cm" y="15.75cm">42.39<title>42.39</title></text><text text-anchor="middle" x="10.5cm" y="5.25cm">0.00<title>0.00</title></text><text text-anchor="middle" x="10.5cm" y="8.75cm">0.00<title>0.00</title></text><text text-anchor="middle" x="10.5cm" y="12.25cm">1.00<title>1.00</title></text><text text-anchor="middle" x="10.5cm" y="15.75cm">0.00<title>0.00</title></text><text text-anchor="middle" x="14.0cm" y="10.5cm">0.08<title>0.08</title></text><text text-anchor="middle" x="17.5cm" y="10.5cm">0.00<title>0.00</title></text></g></svg>